<svg xmlns="http://www.w3.org/2000/svg" width="469.2" height="469.2" shape-rendering="geometricPrecision"><g transform="scale(1.8328125,1.8328125)" stroke-width=".05%"><g fill="#452c5f"><path d=" M 103.18 74.53 C 107.54 72.34 112.14 70.57 116.87 69.35 C 122.86 68.31 128.97 69.03 135.01 68.80 C 143.19 68.41 151.03 71.62 158.02 75.59 C 158.95 76.12 159.88 76.65 160.83 77.15 C 168.85 82.42 175.23 89.80 180.07 98.04 C 183.30 104.00 189.04 108.26 195.27 110.70 C 203.47 110.31 210.39 105.62 217.86 102.79 C 223.22 100.68 229.09 101.34 234.67 100.36 C 231.48 103.05 227.03 103.26 223.61 105.60 C 208.94 114.56 198.22 128.27 186.88 140.90 C 181.70 147.51 178.05 155.17 172.88 161.80 C 170.91 165.24 166.76 166.31 164.22 169.24 C 155.09 176.20 143.66 181.17 131.99 180.36 C 126.97 180.23 121.89 180.77 116.93 179.75 C 101.05 175.90 87.22 164.89 79.66 150.44 C 77.36 145.64 74.56 141.02 70.80 137.22 C 64.68 129.68 57.58 123.04 50.94 115.98 C 46.12 111.74 41.21 107.45 35.42 104.57 C 32.51 103.07 29.17 102.55 26.43 100.66 C 30.41 100.86 34.42 100.93 38.35 101.56 C 47.91 103.27 55.77 110.41 65.71 110.50 C 71.49 108.45 77.42 104.62 79.61 98.61 C 83.61 90.76 89.63 83.90 96.80 78.82 C 96.78 82.42 97.33 85.99 98.36 89.44 C 95.31 93.34 91.82 96.95 89.56 101.42 C 84.81 110.50 81.98 121.15 83.98 131.38 C 85.93 143.79 92.72 155.78 103.35 162.72 C 114.17 170.15 128.16 172.97 140.96 169.84 C 151.39 167.28 161.42 161.48 167.55 152.50 C 173.52 144.32 176.83 134.19 176.76 124.06 C 176.33 111.27 171.11 98.48 161.61 89.76 C 160.82 89.11 160.01 88.47 159.20 87.84 C 150.03 80.90 138.37 77.02 126.84 77.92 C 118.67 78.59 110.76 81.46 103.86 85.85 C 103.68 84.31 103.55 82.77 103.28 81.24 C 103.06 79.38 102.86 77.51 102.70 75.64 L 103.18 74.53 M 185.84 117.91 C 185.83 121.50 185.86 125.10 185.84 128.70 C 188.87 125.23 192.33 122.19 195.61 118.97 C 194.14 119.20 192.69 119.42 191.25 119.75 C 189.45 119.10 187.62 118.59 185.84 117.91 M 65.40 118.97 C 68.27 121.88 71.38 124.53 74.22 127.48 C 74.16 124.51 74.18 121.55 74.16 118.58 C 72.67 118.93 71.18 119.29 69.70 119.70 C 68.27 119.41 66.84 119.17 65.40 118.97 Z"/></g><g fill="#6d9098"><path d=" M 97.57 67.63 C 101.33 55.51 112.36 45.79 125.02 44.23 C 130.70 44.34 136.75 43.31 142.01 46.04 C 154.40 50.94 164.70 63.88 162.98 77.67 L 161.86 77.46 L 160.83 77.15 C 159.88 76.65 158.95 76.12 158.02 75.59 C 156.96 68.95 154.58 62.20 149.40 57.65 C 141.84 50.63 130.32 47.49 120.56 51.54 C 110.82 54.85 103.40 64.09 102.60 74.37 L 102.70 75.64 C 102.86 77.51 103.06 79.38 103.28 81.24 C 102.48 87.77 106.73 93.55 110.96 98.05 C 121.48 107.96 139.25 107.62 149.61 97.62 C 152.96 94.51 154.83 90.24 156.65 86.13 C 157.50 86.70 158.35 87.27 159.20 87.84 C 160.01 88.47 160.82 89.11 161.61 89.76 C 158.05 98.51 150.94 105.74 142.12 109.18 C 137.69 111.12 132.75 110.80 128.03 110.81 C 114.84 111.36 102.72 101.52 98.36 89.44 C 97.33 85.99 96.78 82.42 96.80 78.82 C 96.89 75.09 96.57 71.26 97.57 67.63 Z"/><path d=" M 58.95 170.98 C 58.63 165.14 64.36 160.22 70.03 160.77 C 75.36 160.69 80.25 165.63 79.89 170.98 C 80.18 174.69 77.61 177.67 75.27 180.22 C 80.43 186.59 86.26 192.77 93.92 196.08 C 101.16 200.06 109.34 201.83 117.54 202.08 C 118.20 197.81 120.52 193.29 124.97 192.05 C 128.39 191.47 132.36 191.41 135.07 193.94 C 137.73 195.74 138.54 199.01 139.24 201.94 C 156.02 201.76 172.58 192.72 181.41 178.38 C 178.20 174.43 177.73 168.23 181.36 164.39 C 185.27 159.42 193.44 159.75 197.46 164.41 C 202.20 169.52 199.43 178.76 192.93 180.92 C 190.18 182.29 187.13 181.47 184.34 180.71 C 176.58 192.34 164.56 201.18 150.84 204.22 C 146.79 204.97 142.64 205.07 138.59 205.86 C 136.42 209.20 133.20 212.34 129.07 212.81 C 124.45 213.23 120.33 209.97 118.36 206.00 C 111.20 204.75 103.66 205.07 96.93 201.97 C 86.52 198.23 78.21 190.46 71.57 181.83 C 65.30 182.66 58.33 177.71 58.95 170.98 M 67.26 164.23 C 63.31 165.36 60.81 170.06 62.19 173.96 C 63.08 176.45 65.40 178.24 67.92 178.88 C 72.20 179.28 77.15 175.64 76.36 170.99 C 76.52 166.51 71.41 163.14 67.26 164.23 M 187.28 164.23 C 185.09 164.72 183.31 166.31 182.27 168.26 C 179.92 172.84 183.84 179.04 188.97 178.88 C 193.09 179.22 197.02 175.15 196.24 170.99 C 196.58 166.40 191.46 163.16 187.28 164.23 M 126.22 195.32 C 121.44 196.56 119.23 202.84 122.21 206.79 C 124.98 211.06 131.87 210.73 134.26 206.22 C 137.84 201.08 132.25 193.26 126.22 195.32 Z"/></g></g></svg>