<svg xmlns="http://www.w3.org/2000/svg" width="469.2" height="469.2" shape-rendering="geometricPrecision"><g transform="translate(469.2, 0) scale(-1, 1)scale(1.8328125,1.8328125)" stroke-width=".05%"><g fill="#74131b"><path d=" M 48.10 14.17 C 68.04 14.42 87.98 14.10 107.92 14.05 C 152.73 63.07 197.17 112.43 242.00 161.43 C 241.94 183.59 241.98 205.76 241.98 227.92 C 177.53 156.51 112.62 85.52 48.10 14.17 Z"/><path d=" M 112.24 14.02 C 113.24 14.01 115.22 13.99 116.22 13.98 C 158.28 59.98 200.02 106.27 242.01 152.33 C 242.00 153.87 241.99 155.41 241.97 156.96 C 198.69 109.34 155.35 61.79 112.24 14.02 Z"/><path d=" M 14.30 30.21 C 17.80 34.80 21.96 38.82 25.87 43.04 C 86.31 109.23 146.48 175.67 206.76 242.00 C 186.87 242.03 166.98 241.90 147.10 242.00 C 102.75 193.20 58.48 144.34 14.10 95.57 C 14.10 73.79 14.46 52.00 14.30 30.21 Z"/><path d=" M 13.94 100.13 C 28.67 115.72 42.75 131.92 57.34 147.63 C 85.78 179.16 114.49 210.47 142.93 242.00 C 141.27 242.02 139.62 242.01 137.96 242.00 C 96.98 197.33 56.44 152.24 15.58 107.46 C 13.45 105.62 14.13 102.60 13.94 100.13 Z"/></g></g><g transform="scale(1.8328125,1.8328125)" stroke-width=".05%"><g fill="#9d8e6c"><path d=" M 173.17 54.38 C 179.56 48.12 186.03 41.92 192.43 35.67 C 194.10 43.43 195.77 51.20 197.38 58.97 C 197.73 60.30 197.84 62.04 199.34 62.62 C 206.74 66.50 214.10 70.48 221.59 74.21 C 220.18 75.73 218.27 76.56 216.48 77.53 C 211.14 80.54 205.91 83.76 200.55 86.74 C 199.70 87.33 198.36 87.77 198.36 89.03 C 196.95 97.51 195.21 105.94 194.08 114.46 C 187.43 108.58 180.95 102.49 174.23 96.70 C 165.25 97.26 156.38 99.16 147.44 100.24 C 150.49 93.06 153.74 85.96 157.01 78.87 C 157.42 77.72 158.22 76.63 158.15 75.37 C 154.37 67.40 150.23 59.60 146.62 51.56 C 155.45 52.68 164.34 53.28 173.17 54.38 Z"/></g><g fill="#9d8e6c"><path d=" M 78.64 168.61 C 79.36 171.54 79.55 174.78 81.15 177.39 C 83.42 178.84 86.02 179.65 88.48 180.73 C 86.33 182.69 83.66 183.91 81.29 185.57 C 80.96 188.48 80.50 191.38 80.04 194.27 C 77.91 192.26 75.65 190.39 73.34 188.58 C 70.49 189.10 67.65 189.72 64.85 190.48 C 66.02 187.71 67.11 184.91 68.12 182.08 C 66.66 179.65 65.30 177.15 64.00 174.63 C 66.91 174.78 69.83 174.91 72.75 174.94 C 74.73 172.85 76.71 170.75 78.64 168.61 Z"/></g></g></svg>