<svg xmlns="http://www.w3.org/2000/svg" width="469.2" height="469.2" shape-rendering="geometricPrecision"><g transform="scale(1.8328125,1.8328125)" stroke-width=".05%"><g fill="#c3c0bf"><path d=" M 108.06 30.10 C 110.36 23.80 116.27 20.04 120.75 15.39 C 121.85 22.03 121.58 28.79 120.33 35.38 C 125.69 35.27 131.05 35.28 136.40 35.38 C 135.13 28.81 135.02 22.06 135.97 15.43 C 140.64 19.91 146.21 23.87 148.85 29.99 C 168.14 34.14 186.53 43.48 200.14 57.93 C 212.32 69.78 220.94 85.07 225.47 101.41 C 227.28 108.96 234.76 112.84 239.35 118.56 C 232.73 119.88 225.96 119.41 219.36 118.24 C 219.73 124.45 219.73 130.68 219.23 136.88 C 226.02 136.33 232.84 136.06 239.62 136.82 C 235.13 142.65 227.34 146.44 226.12 154.30 C 218.26 186.61 192.89 213.87 161.41 224.38 C 157.17 225.93 152.53 226.33 148.52 228.43 C 144.06 231.83 140.63 236.38 136.46 240.12 C 135.01 233.64 135.39 226.98 136.66 220.51 C 131.20 220.58 125.75 220.52 120.30 220.38 C 121.54 226.97 121.96 233.73 120.58 240.33 C 117.82 237.80 115.10 235.21 112.54 232.47 C 110.37 230.26 108.22 227.67 105.02 227.02 C 97.96 225.10 90.79 223.25 84.28 219.79 C 75.78 215.33 67.24 210.49 60.47 203.56 C 55.47 198.50 50.15 193.66 46.23 187.68 C 40.13 178.57 34.67 168.81 32.05 158.08 C 30.95 154.66 30.79 150.64 28.09 147.98 C 24.57 144.39 20.85 141.00 17.46 137.27 C 24.12 136.00 30.92 136.41 37.57 137.54 C 37.19 131.12 37.15 124.69 37.62 118.27 C 30.98 119.42 24.18 119.89 17.54 118.51 C 21.44 114.06 26.18 110.38 29.88 105.76 C 32.57 100.08 33.37 93.67 36.10 87.98 C 39.33 81.11 43.31 74.62 47.51 68.31 C 51.85 62.45 57.32 57.57 62.46 52.44 C 67.21 47.61 73.24 44.43 78.97 40.95 C 87.92 35.64 97.86 32.11 108.06 30.10 M 148.07 33.19 C 148.24 35.59 148.41 38.00 148.60 40.40 C 150.99 41.52 153.39 42.62 155.80 43.71 C 158.63 41.89 161.42 40.02 164.15 38.05 C 158.91 36.05 153.52 34.49 148.07 33.19 M 93.11 37.99 C 96.52 40.40 100.57 44.44 105.07 42.05 C 109.05 41.04 108.38 36.34 108.85 33.17 C 103.51 34.45 98.23 36.00 93.11 37.99 M 90.84 38.85 C 90.01 42.33 90.89 45.90 91.37 49.36 C 93.75 47.94 96.12 46.50 98.49 45.06 C 96.49 42.64 94.57 40.10 92.04 38.22 L 90.84 38.85 M 158.85 45.25 C 161.32 46.86 163.80 48.44 166.29 50.01 C 166.73 46.62 167.22 43.24 167.70 39.86 C 167.00 39.46 165.60 38.65 164.90 38.25 C 162.87 40.57 160.86 42.91 158.85 45.25 M 68.39 52.14 C 69.70 55.80 71.07 59.43 72.52 63.04 C 74.97 61.10 77.41 59.14 79.84 57.18 C 76.83 55.08 73.83 52.96 70.88 50.77 C 75.62 52.05 80.43 54.24 85.45 53.51 C 88.31 49.52 88.70 44.42 89.75 39.77 C 81.80 42.28 74.97 47.17 68.39 52.14 M 167.86 39.84 C 168.08 44.71 169.34 49.45 171.33 53.89 C 176.51 53.75 181.56 52.41 186.25 50.21 C 180.48 46.16 174.55 42.21 167.86 39.84 M 116.82 48.85 C 113.39 52.73 112.06 57.99 109.24 62.29 C 97.73 81.18 81.47 97.19 62.32 108.27 C 58.71 110.43 54.63 111.77 51.26 114.30 C 50.21 115.97 50.16 118.05 49.88 119.95 C 49.33 127.11 49.58 134.32 50.69 141.42 C 78.64 154.29 102.22 176.92 115.20 204.92 C 116.18 207.76 119.49 207.77 121.98 208.00 C 128.36 208.12 134.82 207.83 141.09 206.55 C 147.49 191.32 157.48 177.77 169.42 166.43 C 180.00 155.84 192.66 147.51 206.29 141.38 C 207.91 132.29 207.24 122.93 205.72 113.88 C 184.18 104.65 165.91 88.65 152.32 69.70 C 147.53 63.16 144.04 55.83 140.38 48.64 C 132.63 47.60 124.42 46.57 116.82 48.85 M 178.07 57.32 C 179.76 60.05 182.70 61.57 185.29 63.31 C 186.43 60.06 187.53 56.79 188.55 53.50 C 188.51 58.28 188.63 63.06 189.17 67.81 C 194.17 68.52 199.24 68.64 204.28 68.21 C 199.88 61.27 193.50 55.93 187.00 51.03 C 183.95 53.02 180.75 54.84 178.07 57.32 M 55.44 101.23 C 65.97 96.60 75.15 89.37 83.42 81.46 C 91.47 73.11 98.66 63.74 103.45 53.12 C 82.79 63.28 65.31 80.37 55.44 101.23 M 153.13 53.02 C 157.65 62.31 163.41 71.02 170.57 78.49 C 179.35 87.83 189.54 96.11 201.39 101.21 C 191.25 80.38 173.93 63.19 153.13 53.02 M 52.78 68.33 C 57.67 68.65 62.60 68.49 67.43 67.60 C 67.59 62.73 67.62 57.84 67.26 52.97 C 61.85 57.47 56.29 62.11 52.78 68.33 M 50.96 68.11 C 51.56 72.67 54.71 76.15 57.28 79.75 C 59.21 77.29 61.15 74.83 63.09 72.38 C 59.24 70.45 55.17 68.99 50.96 68.11 M 194.01 72.74 C 196.00 75.29 197.98 77.85 199.99 80.38 C 202.06 77.46 204.12 74.53 206.17 71.59 C 204.55 76.38 203.28 81.32 203.16 86.41 C 207.20 88.06 211.40 89.31 215.69 90.19 C 212.70 90.59 209.73 91.05 206.75 91.52 C 208.27 94.24 209.77 96.97 211.30 99.69 C 213.37 97.84 215.35 95.88 217.02 93.65 C 217.47 94.12 217.91 94.59 218.35 95.08 C 215.20 97.73 213.22 101.44 213.04 105.58 C 216.42 106.25 219.83 106.69 223.26 106.94 C 222.33 102.33 220.73 97.86 220.25 93.16 C 219.84 93.08 219.03 92.93 218.62 92.85 C 216.04 83.93 210.88 76.03 205.14 68.82 C 201.38 69.98 197.67 71.28 194.01 72.74 M 39.72 89.88 C 44.52 89.04 49.21 87.66 53.64 85.65 C 52.57 81.04 51.76 76.31 49.79 71.97 C 45.07 77.00 41.71 83.29 39.72 89.88 M 37.62 90.48 C 39.34 94.19 42.44 96.85 45.70 99.17 C 47.23 96.40 48.71 93.61 50.13 90.78 C 45.96 90.50 41.79 90.34 37.62 90.48 M 36.78 95.29 C 35.66 99.14 34.51 102.99 33.34 106.82 C 36.68 106.64 40.01 106.32 43.32 105.84 C 42.72 101.93 40.90 98.41 38.63 95.21 C 38.17 95.23 37.24 95.27 36.78 95.29 M 33.05 148.73 C 34.07 154.03 35.52 159.24 37.70 164.19 C 40.47 159.94 45.77 154.96 42.48 149.57 C 39.33 149.34 36.19 149.03 33.05 148.73 M 212.77 153.05 C 212.37 157.03 215.80 160.13 217.56 163.42 C 215.22 161.52 212.88 159.61 210.55 157.71 C 209.13 160.50 207.82 163.35 206.64 166.25 C 210.53 166.52 214.43 166.71 218.33 166.79 C 220.80 160.83 222.98 154.71 223.97 148.31 C 220.19 149.12 213.90 148.07 212.77 153.05 M 153.26 202.40 C 174.25 192.44 191.80 175.06 201.68 154.01 C 180.77 164.21 163.63 181.62 153.26 202.40 M 55.44 154.28 C 65.10 175.35 82.73 192.41 103.40 202.67 C 93.67 181.63 76.10 164.58 55.44 154.28 M 46.40 157.92 C 43.73 160.20 41.07 162.47 38.39 164.74 C 38.47 165.64 38.55 166.53 38.64 167.43 C 42.52 167.01 46.41 166.61 50.31 166.30 C 49.11 163.46 47.80 160.67 46.40 157.92 M 203.06 171.63 C 203.65 176.76 204.89 181.79 206.88 186.55 C 211.76 180.84 215.30 174.13 218.04 167.17 C 212.93 168.23 207.92 169.72 203.06 171.63 M 39.68 168.40 C 41.85 175.20 45.76 181.25 50.10 186.86 C 51.76 182.15 52.97 177.31 53.77 172.39 C 49.24 170.54 44.51 169.18 39.68 168.40 M 199.54 178.17 C 197.53 180.18 195.92 182.56 194.23 184.84 C 198.33 186.57 202.57 188.00 206.96 188.83 C 204.97 185.04 203.33 180.52 199.54 178.17 M 50.35 188.52 C 54.82 188.82 58.87 186.49 62.98 185.11 C 61.06 182.66 59.12 180.22 57.15 177.81 C 54.70 181.25 52.02 184.60 50.35 188.52 M 189.45 189.39 C 188.72 194.41 188.52 199.50 189.04 204.56 C 195.71 200.91 200.85 194.98 205.03 188.74 C 199.83 188.50 194.61 188.64 189.45 189.39 M 52.68 190.47 C 57.19 195.84 62.17 200.82 67.57 205.30 C 68.65 200.31 68.44 195.19 67.52 190.20 C 62.60 189.34 57.57 189.40 52.68 190.47 M 72.39 194.76 C 70.64 198.75 68.66 202.86 69.06 207.35 C 72.80 205.24 76.28 202.72 79.60 200.00 C 77.22 198.23 74.81 196.49 72.39 194.76 M 177.27 200.08 C 180.89 202.81 184.62 205.43 188.83 207.17 C 188.28 202.67 186.63 198.44 184.75 194.35 C 182.26 196.26 179.77 198.17 177.27 200.08 M 71.84 207.77 C 76.63 212.84 83.32 215.68 89.68 218.26 C 88.87 213.40 87.47 208.68 85.62 204.13 C 80.89 204.66 76.10 205.51 71.84 207.77 M 168.19 218.27 C 174.60 214.94 181.36 211.96 186.66 206.93 C 181.79 205.18 176.78 203.88 171.66 203.15 C 169.59 207.93 167.95 212.99 168.19 218.27 M 91.50 206.95 C 90.64 211.38 89.97 215.98 91.41 220.37 C 94.37 217.55 96.97 214.40 99.44 211.15 C 96.79 209.76 94.14 208.35 91.50 206.95 M 157.82 210.82 C 160.00 213.51 162.23 216.18 164.50 218.81 C 165.57 218.66 166.65 218.52 167.72 218.38 C 167.22 214.49 166.71 210.60 166.28 206.71 C 163.43 208.02 160.61 209.38 157.82 210.82 M 92.73 219.64 C 97.87 222.01 103.36 223.44 108.84 224.75 C 108.53 220.83 109.57 214.69 104.44 213.55 C 99.85 213.37 96.36 217.34 92.73 219.64 M 148.55 215.52 C 148.45 218.60 148.30 221.68 148.18 224.76 C 153.70 223.28 159.33 222.01 164.44 219.38 C 161.33 217.27 158.37 214.73 154.77 213.50 C 152.46 212.77 150.49 214.59 148.55 215.52 Z"/></g></g><g transform="scale(1.8328125,1.8328125)" stroke-width=".05%"><g fill="#234400"><path d=" M 120.02 38.46 C 123.63 37.97 127.28 36.47 130.94 37.50 C 135.00 38.46 139.44 38.56 142.99 41.01 C 147.31 43.96 151.21 47.64 154.01 52.09 C 154.80 53.92 154.38 56.03 154.58 57.97 C 154.62 81.17 155.55 104.37 155.53 127.56 C 146.58 134.33 137.19 140.61 127.89 146.91 C 118.56 140.70 109.30 134.31 100.28 127.65 C 99.96 111.11 101.01 94.54 100.95 77.99 C 101.17 69.40 100.97 60.81 101.52 52.24 C 106.08 46.01 111.92 39.49 120.02 38.46 M 112.13 73.18 C 117.16 79.81 122.78 85.95 127.95 92.47 C 132.85 85.78 138.68 79.84 143.66 73.20 C 138.40 67.53 133.35 61.67 127.83 56.25 C 122.38 61.68 117.40 67.56 112.13 73.18 M 123.24 107.25 C 124.82 109.43 126.33 111.67 127.84 113.91 C 129.30 111.60 130.91 109.40 132.49 107.18 C 130.94 105.21 129.43 103.20 127.87 101.23 C 126.28 103.20 124.76 105.22 123.24 107.25 Z"/><path d=" M 93.39 60.01 C 94.58 58.49 96.16 57.35 97.70 56.21 C 96.64 80.16 95.60 104.13 94.68 128.09 C 94.13 130.22 96.45 131.15 97.75 132.28 C 107.89 139.31 117.91 146.52 127.90 153.76 C 136.80 147.39 145.57 140.84 154.62 134.68 C 156.80 132.94 159.41 131.62 161.12 129.37 C 160.24 105.00 158.99 80.62 158.18 56.24 C 159.77 57.65 162.21 58.81 162.57 61.10 C 163.31 77.53 164.43 93.95 164.99 110.40 C 166.03 119.54 165.43 128.78 166.66 137.90 C 165.47 138.91 164.28 139.92 163.10 140.93 C 160.47 139.52 157.97 137.90 155.35 136.49 C 155.56 139.74 155.65 143.00 155.82 146.25 C 154.08 147.86 152.23 149.36 150.24 150.66 C 148.21 149.09 145.97 147.82 143.65 146.72 C 143.41 150.39 144.11 154.33 142.26 157.70 C 139.24 159.61 136.57 161.99 133.73 164.14 C 131.91 161.21 130.19 158.20 127.93 155.57 C 125.50 158.11 123.74 161.14 121.95 164.13 C 118.78 161.57 115.38 159.27 112.53 156.34 C 112.49 153.11 112.29 149.90 112.12 146.68 C 109.68 147.94 107.30 149.28 104.95 150.69 C 103.41 149.31 101.77 148.04 100.36 146.53 C 99.94 143.13 100.63 139.70 100.55 136.28 C 98.31 137.61 96.17 139.10 93.90 140.39 C 92.01 141.55 90.69 139.17 89.38 138.22 C 90.82 112.16 91.97 86.07 93.39 60.01 Z"/><path d=" M 89.37 66.97 C 88.96 64.78 91.51 64.13 92.70 62.88 C 91.13 88.11 90.14 113.37 88.69 138.61 C 89.91 139.63 91.10 140.68 92.43 141.56 C 95.12 140.94 97.29 138.83 99.76 137.64 C 99.73 140.69 99.55 143.74 99.34 146.78 C 101.27 148.42 103.21 150.07 105.19 151.66 C 105.51 151.35 106.14 150.75 106.46 150.44 C 108.11 149.55 109.76 148.64 111.42 147.74 C 111.77 150.78 111.60 153.87 112.14 156.89 C 115.04 160.14 118.90 162.37 122.18 165.21 C 123.93 162.50 125.74 159.81 127.84 157.35 C 129.80 159.95 131.70 162.60 133.74 165.15 C 136.85 162.50 140.12 160.03 143.36 157.54 C 143.98 154.32 144.22 151.04 144.42 147.77 C 146.49 148.83 148.44 150.10 150.25 151.56 C 152.42 150.06 154.54 148.50 156.51 146.74 C 156.29 143.74 156.17 140.73 156.26 137.73 C 158.50 139.09 160.75 140.42 163.01 141.74 C 164.44 140.62 166.01 139.64 167.19 138.23 C 166.29 129.51 166.69 120.71 165.72 111.98 C 165.23 95.71 163.85 79.48 163.43 63.21 C 164.39 63.99 165.36 64.77 166.31 65.57 C 167.20 83.58 168.25 101.65 169.61 119.60 C 169.23 125.99 171.04 132.34 170.11 138.72 C 170.34 139.26 170.79 140.33 171.02 140.87 C 169.09 142.82 167.29 144.91 164.99 146.44 C 162.82 144.84 160.60 143.30 158.36 141.81 C 158.81 144.52 159.79 147.13 159.98 149.89 C 157.88 152.54 154.75 154.04 152.26 156.25 C 150.92 155.53 149.60 154.77 148.23 154.11 L 148.60 153.11 C 148.14 153.13 147.22 153.17 146.76 153.19 C 146.77 155.48 146.88 157.78 146.77 160.08 C 141.17 165.85 133.94 169.68 128.01 175.09 C 121.79 169.88 114.73 165.71 108.83 160.12 C 108.34 157.58 108.67 154.98 108.85 152.43 C 107.10 153.69 105.41 155.03 103.80 156.46 C 99.46 153.52 95.72 149.82 91.36 146.92 C 93.00 145.65 94.67 144.40 96.36 143.19 C 96.21 144.34 95.92 146.65 95.77 147.80 L 94.76 147.56 C 95.15 148.31 95.55 149.06 95.95 149.82 C 96.35 147.15 96.90 144.51 97.35 141.86 C 95.01 143.22 92.87 144.87 90.74 146.52 C 88.66 144.96 86.74 143.18 85.18 141.11 C 85.73 129.31 86.35 117.46 87.31 105.67 C 87.70 92.76 89.11 79.89 89.37 66.97 M 124.05 166.88 C 125.35 167.53 126.51 168.63 128.01 168.81 C 129.25 168.37 130.40 167.72 131.58 167.14 C 130.40 165.45 129.30 163.72 128.10 162.06 C 126.55 163.50 125.24 165.15 124.05 166.88 Z"/><path d=" M 77.89 63.89 C 79.89 65.28 79.43 67.84 79.79 69.92 C 80.10 74.92 81.11 80.09 79.57 84.98 C 70.36 86.40 61.56 89.50 53.05 93.17 C 53.44 92.09 53.86 91.01 54.30 89.94 C 60.88 87.19 67.21 83.70 74.20 82.08 C 76.40 76.24 76.47 69.91 77.89 63.89 Z"/><path d=" M 177.01 63.74 C 177.37 64.28 178.08 65.37 178.43 65.91 C 179.29 71.33 179.83 76.85 181.54 82.10 C 188.57 83.78 195.20 86.91 201.55 90.28 C 201.81 91.09 202.33 92.71 202.59 93.51 C 194.32 89.03 185.15 86.60 175.96 84.88 C 174.81 77.87 175.82 70.68 177.01 63.74 Z"/><path d=" M 63.76 74.12 C 65.10 68.57 70.98 66.36 75.99 65.35 C 75.67 70.21 74.86 75.03 74.28 79.86 C 74.35 81.63 72.23 81.78 71.04 82.32 C 65.18 84.07 59.76 86.97 54.12 89.29 C 54.69 86.37 55.03 83.25 56.77 80.74 C 58.60 77.96 63.01 77.71 63.76 74.12 Z"/><path d=" M 179.71 65.28 C 182.90 66.18 186.42 66.77 188.86 69.23 C 191.22 70.83 191.70 73.75 192.87 76.14 C 194.96 78.10 198.34 78.73 199.48 81.60 C 200.86 84.03 201.16 86.84 201.66 89.54 C 195.37 86.14 188.72 83.48 181.91 81.33 C 180.94 76.02 180.24 70.66 179.71 65.28 Z"/><path d=" M 64.05 93.04 C 68.90 90.48 74.34 89.51 79.66 88.44 C 79.40 89.45 78.89 91.48 78.63 92.50 C 68.86 92.50 60.14 97.26 51.43 101.10 C 54.24 96.60 59.64 95.34 64.05 93.04 Z"/><path d=" M 176.22 88.46 C 181.29 89.46 186.46 90.41 191.11 92.80 C 195.69 95.07 201.29 96.36 204.12 101.04 C 195.52 97.33 186.92 92.08 177.18 92.77 C 176.94 91.69 176.46 89.54 176.22 88.46 Z"/><path d=" M 55.88 99.90 C 62.49 96.90 69.25 93.40 76.69 93.39 C 77.09 93.93 77.88 95.01 78.28 95.55 C 75.63 108.46 73.13 121.43 71.29 134.49 C 70.28 134.39 69.26 134.29 68.25 134.19 C 66.38 131.94 64.33 129.82 61.90 128.15 C 62.45 125.85 63.38 123.66 64.47 121.57 C 62.33 119.69 59.84 118.14 58.11 115.84 C 57.94 114.00 58.76 112.29 59.37 110.61 C 56.72 108.39 53.63 106.69 51.27 104.13 C 51.33 101.55 54.02 100.91 55.88 99.90 Z"/><path d=" M 177.61 95.19 C 178.02 94.74 178.83 93.83 179.23 93.37 C 187.67 93.39 195.19 97.77 202.59 101.29 C 204.15 101.72 203.98 103.48 204.40 104.74 C 201.73 106.61 198.93 108.33 196.45 110.47 C 196.73 112.30 197.50 114.03 197.76 115.87 C 195.85 117.96 193.56 119.64 191.34 121.38 C 192.18 123.66 193.04 125.93 193.93 128.20 C 190.65 130.15 188.11 133.08 185.83 136.08 C 189.13 133.77 191.56 130.49 194.69 127.97 C 193.83 125.92 193.01 123.85 192.23 121.78 C 194.49 119.95 196.68 118.03 198.88 116.13 C 198.25 114.41 197.64 112.68 197.06 110.94 C 199.58 109.05 202.09 107.15 204.72 105.43 C 206.33 109.28 202.28 110.67 200.11 112.87 C 200.38 114.69 200.65 116.51 201.02 118.31 C 199.22 120.01 197.34 121.61 195.50 123.25 C 196.06 124.77 196.60 126.29 197.11 127.83 C 200.35 125.34 203.68 122.96 207.14 120.78 C 207.39 121.42 207.90 122.70 208.16 123.34 C 205.71 126.21 202.09 127.69 199.35 130.24 C 195.05 134.19 190.61 138.01 186.56 142.22 C 183.14 129.86 182.04 116.97 179.37 104.44 C 178.48 101.43 177.79 98.34 177.61 95.19 Z"/><path d=" M 50.89 105.39 C 53.51 107.14 56.18 108.86 58.50 110.99 C 58.06 112.83 57.51 114.63 57.08 116.47 C 59.26 118.24 61.40 120.05 63.58 121.82 C 62.74 123.83 61.97 125.86 61.20 127.89 C 63.40 130.30 66.11 132.27 67.65 135.19 L 68.32 135.51 C 68.96 135.48 70.24 135.43 70.89 135.41 C 70.55 137.76 69.93 140.06 69.20 142.32 C 62.64 135.49 55.51 129.19 47.73 123.78 C 47.88 123.01 48.19 121.48 48.35 120.72 C 51.99 122.70 55.14 125.42 58.59 127.71 C 59.13 126.19 59.52 124.63 59.94 123.08 C 58.10 121.41 56.09 119.91 54.41 118.06 C 54.66 116.33 55.23 114.67 55.73 113.00 C 54.11 111.56 52.44 110.17 50.74 108.83 C 50.78 107.97 50.85 106.25 50.89 105.39 Z"/><path d=" M 205.03 109.49 C 205.81 112.96 206.38 116.47 207.04 119.96 C 203.77 121.99 200.68 124.28 197.51 126.45 C 197.24 125.68 196.68 124.12 196.41 123.34 C 198.22 121.83 200.02 120.29 201.75 118.67 C 201.47 116.85 200.92 115.03 201.01 113.18 C 202.26 111.85 203.69 110.72 205.03 109.49 Z"/><path d=" M 50.52 109.59 C 51.98 110.77 53.43 111.96 54.89 113.15 C 54.55 114.90 54.11 116.63 53.62 118.35 C 55.29 120.09 57.12 121.66 59.03 123.13 C 58.80 124.27 58.56 125.41 58.32 126.55 C 55.11 124.37 52.02 122.04 48.70 120.03 C 49.23 116.54 49.77 113.04 50.52 109.59 Z"/><path d=" M 38.78 123.61 C 40.38 123.98 41.96 124.41 43.53 124.90 C 46.50 131.49 49.85 137.96 54.63 143.44 C 55.56 144.81 57.42 146.16 56.68 148.05 C 55.80 152.91 55.08 157.81 54.04 162.64 C 50.68 162.70 47.31 163.02 43.95 162.85 C 42.04 161.24 41.09 158.68 39.65 156.64 C 36.12 161.34 38.24 168.23 33.83 172.36 C 32.54 169.29 32.09 165.96 30.83 162.89 C 32.09 152.58 33.35 142.17 36.55 132.25 C 37.25 131.93 37.95 131.62 38.66 131.30 C 39.05 129.26 38.65 126.85 40.36 125.30 C 39.97 124.87 39.18 124.03 38.78 123.61 Z"/><path d=" M 211.82 125.94 C 212.65 123.90 215.16 124.15 216.92 123.63 C 216.50 124.06 215.65 124.92 215.23 125.35 C 217.61 127.28 216.25 131.24 219.24 132.76 C 222.13 141.60 223.40 150.88 224.60 160.07 C 225.17 162.49 224.20 164.83 223.63 167.14 C 225.54 169.95 225.51 173.41 225.67 176.66 L 226.38 176.56 C 226.51 177.47 226.65 178.39 226.79 179.31 C 225.31 179.34 223.84 179.35 222.37 179.36 L 222.77 181.30 C 222.53 180.69 222.05 179.46 221.81 178.84 C 221.77 179.29 221.70 180.17 221.67 180.62 C 220.23 180.18 218.81 180.13 217.36 180.34 C 218.47 187.64 217.01 194.97 216.14 202.21 C 212.38 195.88 212.54 188.20 212.38 181.08 C 212.89 181.25 213.91 181.59 214.42 181.77 L 214.24 180.44 C 215.51 180.12 216.78 179.77 218.04 179.39 C 215.05 177.62 212.96 174.81 210.35 172.60 C 208.03 171.19 205.30 170.69 202.76 169.80 C 202.42 167.64 202.13 165.46 201.83 163.29 C 205.42 163.57 209.03 163.53 212.64 163.60 C 213.58 161.85 214.55 160.12 215.46 158.36 C 215.90 158.79 216.77 159.66 217.21 160.10 C 217.74 163.34 218.56 166.54 218.67 169.83 C 220.15 171.28 221.52 173.80 223.76 172.02 C 219.31 172.09 218.96 167.27 218.48 164.00 C 218.36 161.38 217.22 159.03 216.02 156.76 C 214.62 158.78 213.43 160.95 211.90 162.88 C 208.45 163.00 205.00 162.70 201.55 162.60 C 200.79 157.33 199.46 152.14 198.96 146.84 C 199.81 144.10 202.46 142.34 203.87 139.86 C 207.29 135.68 209.11 130.55 211.82 125.94 Z"/><path d=" M 159.28 143.97 C 161.29 144.33 162.86 145.63 164.41 146.85 C 163.22 147.76 162.03 148.66 160.84 149.58 C 160.30 147.71 159.76 145.84 159.28 143.97 Z"/><path d=" M 85.79 154.07 C 96.18 156.61 105.35 162.62 113.18 169.73 C 116.21 172.44 120.48 174.20 122.25 178.03 C 121.31 180.98 120.25 183.89 119.12 186.77 C 117.88 183.60 116.56 180.35 114.23 177.81 C 111.50 175.85 108.09 175.23 104.91 174.34 C 99.02 174.18 92.93 177.96 91.41 183.87 C 93.93 181.86 94.78 177.92 98.19 177.11 C 100.02 176.43 101.82 175.67 103.60 174.85 C 106.97 175.95 110.52 176.64 113.68 178.28 C 115.89 180.99 116.94 184.46 118.82 187.40 C 118.25 187.62 117.10 188.06 116.52 188.28 C 111.41 186.28 110.23 178.40 103.97 179.09 C 98.70 179.38 96.26 184.80 92.84 187.99 C 92.03 186.61 91.47 185.12 91.09 183.57 C 89.26 179.36 87.59 175.02 86.73 170.50 C 85.95 165.07 84.28 159.53 85.79 154.07 Z"/><path d=" M 147.99 155.30 C 149.40 154.52 150.36 156.45 150.01 157.60 C 149.51 157.81 148.51 158.23 148.01 158.44 C 147.17 157.38 147.16 156.34 147.99 155.30 Z"/><path d=" M 143.16 169.21 C 150.86 162.37 159.81 156.12 170.13 154.30 C 171.48 159.57 169.93 164.87 169.13 170.09 C 168.45 174.77 166.38 179.08 165.09 183.60 C 162.78 180.40 160.65 176.49 156.49 175.47 C 152.28 173.24 147.55 174.95 143.48 176.59 C 139.62 178.33 138.40 182.88 136.53 186.32 C 135.35 183.46 134.34 180.54 133.24 177.65 C 136.11 174.35 139.77 171.93 143.16 169.21 Z"/><path d=" M 39.44 157.99 C 40.76 159.80 41.99 161.69 43.22 163.58 C 46.84 163.55 50.46 163.50 54.07 163.44 C 53.66 165.55 53.34 167.69 52.73 169.76 C 49.91 171.36 46.14 171.24 43.94 173.88 C 41.79 176.14 39.52 178.29 37.01 180.15 C 36.07 180.28 34.20 180.55 33.26 180.68 L 33.87 179.12 L 32.89 179.60 C 32.08 177.29 30.74 179.06 29.63 179.92 C 29.91 175.67 30.56 171.46 30.97 167.23 C 31.96 169.28 32.79 171.41 33.70 173.51 C 38.78 169.88 36.82 163.00 39.44 157.99 Z"/><path d=" M 125.35 166.00 C 126.25 164.88 127.15 163.76 128.04 162.63 C 128.77 164.18 129.54 165.72 130.29 167.26 C 129.48 167.52 127.87 168.03 127.06 168.28 C 126.63 167.71 125.77 166.57 125.35 166.00 Z"/><path d=" M 47.37 177.65 C 50.30 176.89 53.13 175.79 56.06 175.01 C 57.75 181.34 58.84 187.87 58.36 194.45 C 56.67 194.93 54.95 195.32 53.20 195.51 C 50.67 189.74 48.51 183.86 47.37 177.65 Z"/><path d=" M 141.64 178.53 C 144.90 176.72 148.57 175.72 152.22 175.03 C 155.00 175.84 157.55 177.30 160.27 178.29 C 161.59 180.39 163.12 182.34 164.65 184.27 C 164.15 185.58 163.61 186.88 163.05 188.17 C 159.44 184.71 156.79 178.90 151.00 179.07 C 145.99 178.96 144.68 184.73 141.05 187.07 C 139.89 188.43 138.32 188.12 136.87 187.42 C 138.55 184.50 139.77 181.33 141.64 178.53 Z"/><path d=" M 199.59 175.06 C 202.58 175.71 205.44 176.81 208.40 177.58 C 207.10 183.90 205.08 189.99 202.13 195.73 C 200.60 195.31 199.04 195.00 197.56 194.43 C 196.57 187.92 198.00 181.35 199.59 175.06 Z"/><path d=" M 38.32 180.40 C 39.88 179.55 41.17 180.05 41.79 181.73 L 43.08 180.70 C 43.24 187.93 43.46 195.87 39.47 202.23 C 39.13 194.95 37.00 187.68 38.32 180.40 Z"/><path d=" M 91.80 190.67 C 96.24 191.86 99.50 195.83 104.16 196.65 C 106.48 194.30 109.89 193.68 112.40 191.57 C 113.88 191.00 117.86 192.26 115.42 194.03 C 111.51 196.69 107.22 199.96 102.29 199.85 C 98.53 198.00 94.98 195.65 91.59 193.19 C 91.64 192.56 91.74 191.30 91.80 190.67 Z"/><path d=" M 151.49 196.54 C 156.11 195.80 159.56 192.38 163.62 190.35 C 163.75 191.04 164.02 192.42 164.15 193.11 C 160.95 195.74 157.25 197.76 153.65 199.82 C 149.30 200.30 145.54 197.27 141.96 195.21 C 140.35 194.46 139.66 193.04 140.07 191.30 C 144.26 191.86 148.06 194.17 151.49 196.54 Z"/><path d=" M 86.63 207.89 C 87.04 202.90 89.36 198.37 91.05 193.73 C 94.88 196.34 98.91 198.69 103.11 200.65 C 107.98 199.95 112.50 197.52 116.45 194.67 C 117.98 199.00 119.84 203.29 120.38 207.90 C 120.94 212.91 122.93 218.18 120.79 223.10 C 120.39 222.80 119.59 222.20 119.19 221.90 C 118.16 218.85 116.17 216.22 113.61 214.28 C 110.49 211.39 105.96 211.52 102.02 210.93 C 98.90 210.39 96.10 212.18 93.58 213.75 C 90.27 216.47 88.15 220.31 85.40 223.54 C 84.61 218.28 86.17 213.10 86.63 207.89 Z"/><path d=" M 152.79 200.60 C 156.94 198.63 160.89 196.23 164.79 193.79 C 166.26 198.16 168.54 202.33 169.01 206.98 C 169.68 212.47 170.89 217.92 170.75 223.47 C 166.52 219.15 163.50 212.70 157.04 211.37 C 151.81 211.17 145.68 210.86 141.56 214.70 C 139.35 216.41 137.65 218.72 136.76 221.38 C 138.80 218.87 140.51 215.97 143.36 214.25 C 146.64 211.70 151.03 212.23 154.91 211.73 C 161.54 211.96 165.32 218.12 169.08 222.70 C 157.47 222.71 145.83 222.29 134.21 222.85 C 133.64 213.25 135.60 203.66 139.18 194.78 C 143.38 197.32 147.81 200.13 152.79 200.60 Z"/><path d=" M 87.06 222.83 C 90.05 218.08 93.83 213.56 99.18 211.42 C 102.99 211.77 106.98 211.79 110.57 213.19 C 113.95 215.17 117.38 218.01 118.37 221.97 L 118.41 222.91 C 107.97 222.13 97.50 222.71 87.06 222.83 Z"/><path d=" M 106.52 155.21 C 108.47 154.50 108.51 157.96 107.40 158.73 C 106.43 158.71 105.79 158.26 105.48 157.37 C 105.74 156.83 106.26 155.75 106.52 155.21 Z"/></g><g fill="#1a181b"><path d=" M 118.11 73.71 C 121.28 70.00 124.35 66.19 127.85 62.77 C 131.36 66.19 134.57 69.88 137.51 73.78 C 134.40 77.74 131.31 81.72 127.92 85.44 C 124.43 81.71 121.24 77.73 118.11 73.71 Z"/><path d=" M 54.35 69.25 C 57.34 67.45 60.71 66.41 63.92 65.06 C 63.29 68.38 62.55 71.68 62.01 75.01 C 58.86 76.62 55.70 78.23 52.48 79.71 C 52.90 76.20 53.14 72.60 54.35 69.25 Z"/><path d=" M 191.84 65.24 C 195.14 66.46 198.42 67.76 201.68 69.08 C 202.22 72.58 202.86 76.07 203.28 79.59 C 200.01 78.24 196.80 76.74 193.76 74.93 C 193.09 71.71 192.41 68.48 191.84 65.24 Z"/><path d=" M 49.50 128.81 C 51.10 128.72 52.77 128.88 53.97 130.07 C 57.44 132.80 60.57 135.93 63.65 139.08 C 60.62 138.83 57.60 138.60 54.57 138.44 C 52.93 135.21 51.12 132.06 49.50 128.81 Z"/><path d=" M 201.96 129.90 C 203.09 128.82 204.71 128.90 206.14 128.60 C 204.62 131.93 202.93 135.17 201.25 138.41 C 198.20 138.60 195.16 138.88 192.12 139.15 C 195.22 135.88 198.44 132.71 201.96 129.90 Z"/><path d=" M 95.33 188.51 C 97.94 187.03 100.39 185.25 103.10 183.93 C 106.52 184.38 109.26 186.95 112.20 188.61 C 109.37 190.20 106.55 191.82 103.79 193.52 C 100.95 191.90 98.14 190.19 95.33 188.51 Z"/><path d=" M 143.58 188.57 C 146.39 186.92 149.17 185.22 151.99 183.57 C 154.82 185.19 157.62 186.86 160.42 188.53 C 157.64 190.18 154.88 191.86 152.13 193.56 C 149.27 191.90 146.42 190.23 143.58 188.57 Z"/></g></g></svg>