<svg xmlns="http://www.w3.org/2000/svg" width="469.2" height="469.2" shape-rendering="geometricPrecision"><g transform="translate(469.2, 0) scale(-1, 1)scale(1.8328125,1.8328125)" stroke-width=".05%"><g fill="#839090"><path d=" M 69.43 12.67 C 76.27 12.07 83.14 12.45 90.00 12.39 C 120.69 12.35 151.37 12.45 182.06 12.33 C 184.40 12.32 186.73 12.66 189.05 12.96 C 190.07 18.92 189.56 24.98 189.62 31.00 C 189.61 92.00 189.62 153.00 189.61 214.00 C 189.34 222.99 190.29 232.03 189.10 240.97 C 187.10 241.31 185.10 241.69 183.07 241.69 C 151.38 241.53 119.69 241.66 88.00 241.61 C 81.63 241.54 75.22 242.12 68.91 241.04 C 68.07 234.39 68.53 227.68 68.46 221.00 C 68.44 156.67 68.49 92.33 68.44 28.00 C 68.60 22.90 67.70 17.59 69.43 12.67 Z"/></g></g><g transform="scale(1.8328125,1.8328125)" stroke-width=".05%"><g fill="#234400"><path d=" M 139.65 67.50 C 141.04 67.05 142.44 66.65 143.84 66.26 C 146.63 66.55 149.41 66.98 152.13 67.69 L 151.48 67.72 C 147.54 68.00 143.58 67.98 139.65 67.50 Z"/><path d=" M 134.38 105.05 C 136.81 104.88 139.24 104.93 141.67 104.95 C 142.07 106.80 142.37 108.97 144.34 109.84 C 144.38 109.11 144.45 107.64 144.48 106.91 C 145.37 108.37 146.72 109.39 148.27 110.09 C 148.28 113.11 149.27 116.48 147.19 119.07 C 142.75 119.85 138.16 121.02 133.65 120.09 C 133.54 115.57 134.00 110.93 132.43 106.57 L 132.95 106.16 C 133.31 105.88 134.02 105.32 134.38 105.05 Z"/><path d=" M 150.67 107.69 C 151.55 108.09 152.43 108.50 153.34 108.86 L 150.69 108.02 C 150.73 108.80 150.81 110.35 150.85 111.13 C 152.68 111.30 154.52 111.34 156.34 111.61 C 156.93 113.32 156.82 115.17 156.96 116.95 C 156.33 117.82 155.71 118.70 155.09 119.58 C 153.54 119.47 152.00 119.33 150.45 119.21 C 152.35 115.57 150.18 111.97 149.96 108.25 L 148.22 108.53 C 148.83 108.32 150.06 107.90 150.67 107.69 Z"/><path d=" M 115.12 109.09 C 120.36 108.89 125.60 108.65 130.78 107.82 C 130.70 111.99 130.34 116.23 131.46 120.30 C 130.77 121.30 129.95 122.19 129.19 123.13 C 128.14 123.94 127.13 124.80 126.13 125.66 C 125.29 125.57 123.62 125.38 122.79 125.28 C 122.19 125.05 121.59 124.82 120.98 124.59 C 118.81 126.36 116.51 125.35 114.37 124.17 C 114.48 122.32 114.68 120.47 115.34 118.72 C 114.77 117.81 114.18 116.91 113.60 116.01 C 113.63 114.36 113.62 112.70 113.74 111.06 C 114.08 110.57 114.78 109.58 115.12 109.09 Z"/><path d=" M 96.26 108.85 C 96.59 111.20 96.97 113.54 97.28 115.90 C 101.60 115.49 105.96 115.12 110.14 113.89 C 110.78 117.27 112.06 120.50 112.79 123.86 C 111.13 124.23 109.85 123.08 108.52 122.33 L 108.49 121.75 C 106.16 121.68 103.87 121.29 101.63 120.67 C 101.68 120.16 101.80 119.13 101.85 118.61 C 99.85 118.60 97.38 116.40 96.01 119.08 C 97.52 119.42 99.01 119.79 100.50 120.21 C 100.17 121.41 100.55 122.56 101.38 123.47 C 104.16 125.08 107.51 125.08 110.50 126.17 C 107.42 126.21 104.04 126.31 101.43 124.41 C 98.99 122.61 96.75 120.54 94.20 118.90 C 94.86 118.71 95.53 118.51 96.20 118.31 C 95.79 116.41 95.33 114.53 94.93 112.63 L 96.74 112.97 C 96.62 111.94 96.38 109.88 96.26 108.85 Z"/><path d=" M 159.52 153.60 C 161.66 152.08 164.01 150.89 166.42 149.85 C 165.09 151.03 163.73 152.18 162.37 153.33 C 163.26 153.89 164.15 154.45 165.04 155.02 C 164.54 158.55 161.70 160.55 158.89 162.27 C 159.40 162.41 160.43 162.70 160.94 162.85 L 161.83 163.10 C 155.52 167.34 150.11 172.99 143.15 176.19 C 135.89 179.42 127.85 180.07 120.26 182.26 C 125.41 172.71 135.48 167.75 144.40 162.42 C 149.25 159.15 154.76 157.02 159.52 153.60 Z"/><path d=" M 94.35 195.39 C 95.84 196.54 97.10 197.96 98.44 199.29 C 98.43 200.71 98.43 202.14 98.43 203.57 C 99.90 203.10 101.38 202.65 102.85 202.19 C 102.30 203.77 101.74 205.35 101.19 206.94 C 103.08 207.08 104.96 207.22 106.85 207.37 C 104.65 207.77 102.45 208.15 100.24 208.50 L 100.71 209.61 C 98.97 209.54 97.22 209.49 95.48 209.43 C 95.53 208.68 95.64 207.20 95.69 206.46 C 95.40 206.45 94.83 206.43 94.54 206.42 C 94.63 202.65 94.55 198.87 93.98 195.14 C 94.07 195.20 94.26 195.32 94.35 195.39 Z"/><path d=" M 131.75 69.67 C 132.31 67.77 134.36 68.30 135.84 68.43 C 137.05 67.80 138.31 67.49 139.65 67.50 C 143.58 67.98 147.54 68.00 151.48 67.72 C 153.49 69.02 153.14 71.91 154.20 73.88 C 153.69 79.01 152.91 84.12 152.26 89.24 C 148.89 88.45 146.10 86.36 143.23 84.54 C 141.63 87.51 139.82 90.36 138.06 93.23 C 138.87 97.25 141.40 100.82 141.67 104.95 C 139.24 104.93 136.81 104.88 134.38 105.05 C 134.02 105.32 133.31 105.88 132.95 106.16 C 131.77 103.61 131.88 100.74 131.66 98.00 C 131.63 93.14 130.83 88.26 131.65 83.44 C 130.97 83.62 130.29 83.85 129.63 84.11 L 130.83 84.17 C 129.93 92.04 131.28 99.94 130.78 107.82 C 125.60 108.65 120.36 108.89 115.12 109.09 C 114.78 109.58 114.08 110.57 113.74 111.06 C 112.20 106.55 112.82 101.69 112.37 97.02 C 112.34 90.00 111.36 83.03 111.24 76.02 C 112.81 73.73 115.20 71.70 118.05 71.37 C 120.38 70.94 122.99 71.31 124.94 69.68 C 125.78 69.64 127.46 69.55 128.31 69.50 C 129.54 73.30 129.74 77.34 131.03 81.12 C 131.16 77.32 130.48 73.31 131.75 69.67 Z"/><path d=" M 155.59 72.60 C 160.49 72.10 165.40 72.77 170.31 72.84 C 170.69 73.19 171.46 73.87 171.85 74.22 C 172.40 80.47 172.70 86.76 172.88 93.03 C 166.43 92.35 160.02 91.30 153.77 89.52 C 154.34 83.88 154.56 78.18 155.59 72.60 Z"/><path d=" M 103.32 81.87 C 105.15 80.80 107.24 77.31 109.55 79.48 C 110.18 82.94 110.06 86.53 110.81 90.00 C 110.73 97.63 112.10 105.20 111.84 112.82 C 111.41 113.09 110.57 113.62 110.14 113.89 C 105.96 115.12 101.60 115.49 97.28 115.90 C 96.97 113.54 96.59 111.20 96.26 108.85 C 96.07 107.17 95.91 105.49 95.78 103.82 C 95.29 104.52 94.29 105.92 93.80 106.63 C 93.92 106.26 94.17 105.54 94.29 105.18 L 95.31 103.77 C 95.00 102.17 95.40 100.12 93.66 99.21 C 93.68 98.94 93.71 98.41 93.73 98.15 C 92.05 98.14 90.38 98.14 88.70 98.13 C 88.97 96.91 89.24 95.69 89.51 94.47 C 90.14 94.36 91.40 94.15 92.02 94.04 C 92.75 95.06 93.49 96.07 94.24 97.08 C 94.10 92.99 91.22 87.77 95.44 84.78 C 98.14 83.44 102.13 83.21 103.31 80.05 C 103.31 80.50 103.32 81.41 103.32 81.87 Z"/><path d=" M 139.27 93.03 C 140.36 90.76 141.06 86.91 143.65 86.23 C 144.09 86.40 144.97 86.74 145.41 86.91 C 149.78 88.75 153.87 91.15 158.63 91.93 C 165.36 93.60 172.86 93.19 178.76 97.29 C 180.05 99.24 179.81 101.63 179.90 103.85 C 179.81 113.59 181.37 123.23 182.24 132.90 C 181.77 134.20 180.75 135.48 181.15 136.96 C 181.48 140.47 181.40 144.00 181.65 147.52 L 180.81 147.53 C 180.28 148.39 179.76 149.25 179.23 150.10 C 174.60 153.52 169.94 156.92 165.28 160.30 C 163.89 161.22 162.66 162.61 160.94 162.85 C 160.43 162.70 159.40 162.41 158.89 162.27 C 161.70 160.55 164.54 158.55 165.04 155.02 C 164.15 154.45 163.26 153.89 162.37 153.33 C 163.73 152.18 165.09 151.03 166.42 149.85 C 164.01 150.89 161.66 152.08 159.52 153.60 C 154.76 157.02 149.25 159.15 144.40 162.42 C 135.48 167.75 125.41 172.71 120.26 182.26 C 127.85 180.07 135.89 179.42 143.15 176.19 C 144.85 176.69 146.56 177.21 148.26 177.75 C 148.40 177.40 148.68 176.68 148.82 176.33 C 150.23 175.95 151.64 175.63 153.07 175.34 C 154.25 176.60 154.28 178.37 154.67 179.96 C 157.44 182.96 153.51 185.83 153.82 189.03 C 153.87 196.45 154.48 203.87 154.52 211.30 C 145.95 211.06 137.37 211.97 128.81 210.93 C 128.33 211.01 127.35 211.18 126.86 211.26 C 126.08 210.64 125.31 210.01 124.53 209.38 C 122.21 211.47 119.03 210.76 116.20 210.59 L 116.52 209.26 C 115.09 209.38 113.72 209.70 112.39 210.21 C 111.78 207.70 111.33 205.16 111.07 202.60 C 110.56 202.52 109.52 202.36 109.01 202.29 C 107.90 200.21 105.90 201.70 104.60 202.56 C 105.40 204.14 106.11 205.76 106.85 207.37 C 104.96 207.22 103.08 207.08 101.19 206.94 C 101.74 205.35 102.30 203.77 102.85 202.19 C 101.38 202.65 99.90 203.10 98.43 203.57 C 98.43 202.14 98.43 200.71 98.44 199.29 C 97.10 197.96 95.84 196.54 94.35 195.39 L 94.09 195.19 C 94.07 187.82 93.93 180.46 93.71 173.11 C 97.06 172.80 99.84 175.49 103.21 174.81 C 97.11 172.36 92.82 167.12 86.87 164.45 C 85.40 159.45 85.62 154.15 86.60 149.08 C 87.14 137.35 88.17 125.64 89.52 113.98 C 89.73 111.41 93.05 112.32 94.74 111.83 L 94.93 112.63 C 95.33 114.53 95.79 116.41 96.20 118.31 C 95.53 118.51 94.86 118.71 94.20 118.90 C 96.75 120.54 98.99 122.61 101.43 124.41 C 104.04 126.31 107.42 126.21 110.50 126.17 C 110.49 126.89 110.47 128.34 110.47 129.06 C 111.25 128.50 112.02 127.94 112.80 127.37 C 114.30 127.43 115.80 127.50 117.30 127.56 C 118.24 128.58 119.20 129.56 120.11 130.60 C 121.26 130.58 122.41 130.56 123.57 130.54 C 122.36 132.41 121.12 134.26 120.10 136.24 C 124.24 131.73 128.13 126.99 132.43 122.61 C 135.15 121.58 138.11 123.01 140.95 122.65 C 144.34 123.17 147.62 120.00 150.75 122.32 C 153.21 121.88 155.68 121.44 158.13 120.94 C 158.44 117.05 158.93 112.95 157.35 109.25 C 155.99 109.25 154.65 109.12 153.34 108.86 C 152.43 108.50 151.55 108.09 150.67 107.69 C 147.97 106.44 145.43 104.82 142.55 104.01 C 143.00 99.95 139.65 96.90 139.27 93.03 M 113.05 150.00 C 113.98 149.24 114.63 148.22 115.05 147.10 C 116.54 143.65 119.79 141.04 120.07 137.08 C 117.67 141.34 115.02 145.53 113.05 150.00 Z"/></g><g fill="rgb(0, 0, 0)" opacity="0.3"><path d=" M 139.65 67.50 C 141.04 67.05 142.44 66.65 143.84 66.26 C 146.63 66.55 149.41 66.98 152.13 67.69 L 151.48 67.72 C 147.54 68.00 143.58 67.98 139.65 67.50 Z"/><path d=" M 134.38 105.05 C 136.81 104.88 139.24 104.93 141.67 104.95 C 142.07 106.80 142.37 108.97 144.34 109.84 C 144.38 109.11 144.45 107.64 144.48 106.91 C 145.37 108.37 146.72 109.39 148.27 110.09 C 148.28 113.11 149.27 116.48 147.19 119.07 C 142.75 119.85 138.16 121.02 133.65 120.09 C 133.54 115.57 134.00 110.93 132.43 106.57 L 132.95 106.16 C 133.31 105.88 134.02 105.32 134.38 105.05 Z"/><path d=" M 150.67 107.69 C 151.55 108.09 152.43 108.50 153.34 108.86 L 150.69 108.02 C 150.73 108.80 150.81 110.35 150.85 111.13 C 152.68 111.30 154.52 111.34 156.34 111.61 C 156.93 113.32 156.82 115.17 156.96 116.95 C 156.33 117.82 155.71 118.70 155.09 119.58 C 153.54 119.47 152.00 119.33 150.45 119.21 C 152.35 115.57 150.18 111.97 149.96 108.25 L 148.22 108.53 C 148.83 108.32 150.06 107.90 150.67 107.69 Z"/><path d=" M 115.12 109.09 C 120.36 108.89 125.60 108.65 130.78 107.82 C 130.70 111.99 130.34 116.23 131.46 120.30 C 130.77 121.30 129.95 122.19 129.19 123.13 C 128.14 123.94 127.13 124.80 126.13 125.66 C 125.29 125.57 123.62 125.38 122.79 125.28 C 122.19 125.05 121.59 124.82 120.98 124.59 C 118.81 126.36 116.51 125.35 114.37 124.17 C 114.48 122.32 114.68 120.47 115.34 118.72 C 114.77 117.81 114.18 116.91 113.60 116.01 C 113.63 114.36 113.62 112.70 113.74 111.06 C 114.08 110.57 114.78 109.58 115.12 109.09 Z"/><path d=" M 96.26 108.85 C 96.59 111.20 96.97 113.54 97.28 115.90 C 101.60 115.49 105.96 115.12 110.14 113.89 C 110.78 117.27 112.06 120.50 112.79 123.86 C 111.13 124.23 109.85 123.08 108.52 122.33 L 108.49 121.75 C 106.16 121.68 103.87 121.29 101.63 120.67 C 101.68 120.16 101.80 119.13 101.85 118.61 C 99.85 118.60 97.38 116.40 96.01 119.08 C 97.52 119.42 99.01 119.79 100.50 120.21 C 100.17 121.41 100.55 122.56 101.38 123.47 C 104.16 125.08 107.51 125.08 110.50 126.17 C 107.42 126.21 104.04 126.31 101.43 124.41 C 98.99 122.61 96.75 120.54 94.20 118.90 C 94.86 118.71 95.53 118.51 96.20 118.31 C 95.79 116.41 95.33 114.53 94.93 112.63 L 96.74 112.97 C 96.62 111.94 96.38 109.88 96.26 108.85 Z"/><path d=" M 159.52 153.60 C 161.66 152.08 164.01 150.89 166.42 149.85 C 165.09 151.03 163.73 152.18 162.37 153.33 C 163.26 153.89 164.15 154.45 165.04 155.02 C 164.54 158.55 161.70 160.55 158.89 162.27 C 159.40 162.41 160.43 162.70 160.94 162.85 L 161.83 163.10 C 155.52 167.34 150.11 172.99 143.15 176.19 C 135.89 179.42 127.85 180.07 120.26 182.26 C 125.41 172.71 135.48 167.75 144.40 162.42 C 149.25 159.15 154.76 157.02 159.52 153.60 Z"/><path d=" M 94.35 195.39 C 95.84 196.54 97.10 197.96 98.44 199.29 C 98.43 200.71 98.43 202.14 98.43 203.57 C 99.90 203.10 101.38 202.65 102.85 202.19 C 102.30 203.77 101.74 205.35 101.19 206.94 C 103.08 207.08 104.96 207.22 106.85 207.37 C 104.65 207.77 102.45 208.15 100.24 208.50 L 100.71 209.61 C 98.97 209.54 97.22 209.49 95.48 209.43 C 95.53 208.68 95.64 207.20 95.69 206.46 C 95.40 206.45 94.83 206.43 94.54 206.42 C 94.63 202.65 94.55 198.87 93.98 195.14 C 94.07 195.20 94.26 195.32 94.35 195.39 Z"/></g><g fill="#534700"><path d=" M 203.72 75.57 C 205.34 73.54 206.81 71.31 208.95 69.78 C 216.20 74.73 223.85 79.09 231.09 84.07 C 232.92 85.65 236.93 85.94 236.81 88.85 C 229.47 95.58 223.08 103.30 217.27 111.37 C 215.94 111.73 214.55 111.83 213.20 112.03 C 211.40 110.26 209.58 108.51 207.72 106.81 C 209.25 104.52 210.40 102.02 211.77 99.65 C 216.67 97.51 221.31 94.81 225.65 91.69 C 210.43 92.76 195.26 94.54 180.05 95.76 C 178.07 95.62 176.56 94.12 174.91 93.18 C 174.87 91.65 174.83 90.12 174.80 88.59 C 186.90 87.04 199.01 85.07 211.22 84.87 C 211.12 83.38 211.02 81.89 210.90 80.40 C 208.54 78.75 206.14 77.14 203.72 75.57 Z"/><path d=" M 53.17 90.62 C 57.04 89.91 60.96 89.55 64.86 89.01 C 69.79 92.42 73.74 97.22 78.95 100.16 C 83.95 99.76 88.95 99.63 93.97 99.82 C 94.11 101.60 94.21 103.39 94.29 105.18 C 94.17 105.54 93.92 106.26 93.80 106.63 C 71.54 109.72 49.08 111.14 26.83 114.18 C 26.56 111.89 26.28 109.62 26.02 107.33 C 28.57 106.84 31.13 106.39 33.68 105.90 C 29.70 102.32 26.00 98.43 21.75 95.15 C 25.31 93.03 29.73 93.73 33.67 92.97 C 38.00 96.38 41.99 100.18 46.19 103.73 C 47.19 104.80 48.63 104.88 49.98 104.63 C 46.61 100.26 41.83 97.34 37.93 93.51 C 38.00 93.22 38.14 92.64 38.22 92.35 C 41.70 91.82 45.21 91.23 48.75 91.23 C 53.58 94.31 57.60 98.50 62.21 101.90 C 63.34 102.93 64.99 102.61 66.36 102.88 C 63.24 97.62 57.25 95.05 53.17 90.62 Z"/><path d=" M 66.43 116.43 C 70.06 115.73 73.77 115.51 77.44 115.10 C 75.22 119.16 72.46 122.99 69.24 126.30 C 65.50 127.42 61.47 127.23 57.62 127.76 C 60.45 123.93 62.84 119.59 66.43 116.43 Z"/><path d=" M 49.70 118.07 C 53.63 117.78 57.54 117.19 61.48 117.02 C 59.27 120.99 56.04 124.24 53.64 128.07 C 49.63 128.88 45.56 129.26 41.49 129.48 C 44.10 125.59 46.79 121.74 49.70 118.07 Z"/><path d=" M 33.30 120.42 C 37.49 119.02 41.97 119.14 46.31 118.57 C 43.56 122.39 40.90 126.27 37.97 129.95 C 33.97 130.68 29.93 131.13 25.86 131.21 C 28.40 127.65 30.49 123.77 33.30 120.42 Z"/></g></g></svg>