<svg xmlns="http://www.w3.org/2000/svg" width="512" height="512" shape-rendering="geometricPrecision"><g transform="translate(512, 0) scale(-1, 1)scale(2,2)" stroke-width=".05%"><g fill="#214371"><path d=" M 119.27 28.27 C 143.60 26.01 168.65 33.07 188.17 47.78 C 206.93 61.70 220.40 82.45 225.66 105.19 C 229.96 124.26 228.77 144.59 221.91 162.91 C 213.81 184.62 197.91 203.37 177.69 214.73 C 162.11 223.72 144.02 228.27 126.04 227.76 C 100.33 227.33 74.89 216.45 57.00 197.96 C 41.06 182.04 31.08 160.45 28.78 138.08 C 26.74 118.50 30.63 98.35 39.93 80.98 C 55.21 51.50 86.17 30.92 119.27 28.27 Z"/></g></g><g transform="scale(2,2)" stroke-width=".05%"><g fill="#c3c0bf"><path d=" M 65.25 62.02 C 88.82 38.94 125.78 31.01 156.90 41.81 C 162.21 43.54 167.29 45.91 172.21 48.54 C 171.87 48.97 171.19 49.82 170.85 50.25 L 170.01 50.35 C 159.14 45.22 147.59 41.18 135.51 40.25 C 135.54 40.82 135.61 41.97 135.65 42.54 C 134.40 42.56 133.16 42.59 131.91 42.58 C 134.06 42.78 135.02 41.97 134.79 40.13 C 110.38 38.24 85.59 46.99 67.61 63.55 C 67.49 64.14 67.26 65.31 67.14 65.90 C 70.20 68.40 73.97 69.70 77.22 71.82 C 77.30 72.03 77.48 72.45 77.57 72.67 L 77.11 72.78 C 68.40 68.14 59.59 63.43 51.94 57.13 C 55.06 58.84 58.14 60.63 61.09 62.62 C 62.37 61.80 63.75 61.60 65.25 62.02 Z"/><path d=" M 135.40 56.56 C 135.82 55.33 136.09 54.06 136.48 52.83 C 136.96 55.82 137.35 58.84 136.56 61.82 L 134.54 61.58 C 136.25 60.39 132.64 55.34 135.40 56.56 Z"/><path d=" M 177.85 55.37 C 178.35 54.56 178.85 53.74 179.34 52.92 C 195.60 63.93 208.12 80.33 214.40 98.94 C 221.54 119.91 220.83 143.53 212.10 163.92 C 203.59 184.21 187.56 201.28 167.67 210.73 C 137.82 225.47 99.83 222.07 73.43 201.67 C 73.85 201.15 74.67 200.11 75.08 199.59 C 88.74 209.48 105.12 215.41 121.91 216.76 C 141.23 218.06 160.96 212.89 177.03 202.04 C 195.91 189.63 209.51 169.56 214.29 147.50 C 218.91 126.90 215.78 104.68 205.64 86.17 C 199.09 73.81 189.29 63.34 177.85 55.37 Z"/><path d=" M 88.48 66.96 C 89.69 74.59 93.06 81.70 98.11 87.53 C 101.85 86.61 99.95 82.80 100.10 80.06 C 101.52 81.34 102.94 82.63 104.38 83.90 C 106.26 82.98 108.15 82.09 110.06 81.22 C 110.93 77.92 111.40 74.49 110.53 71.15 C 113.35 73.49 114.78 77.24 118.16 78.95 C 119.33 78.98 120.65 78.58 121.28 77.51 C 123.61 74.25 125.30 70.57 126.41 66.72 C 128.28 70.43 129.38 74.52 131.68 78.04 C 134.25 78.29 136.80 78.68 139.33 79.20 C 139.93 78.89 140.54 78.57 141.15 78.26 C 143.35 81.27 147.83 81.31 150.98 83.15 C 151.64 82.60 152.97 81.51 153.64 80.96 L 153.08 83.48 C 147.32 93.10 139.94 101.64 134.27 111.31 C 129.05 118.69 123.70 125.96 118.62 133.43 C 110.03 145.37 101.09 157.05 92.44 168.95 C 90.30 170.05 88.11 171.05 85.94 172.09 C 87.27 169.43 88.54 166.74 89.37 163.88 C 86.94 160.80 84.63 157.62 82.75 154.16 C 79.50 154.23 76.28 154.68 73.05 155.06 C 75.48 152.65 77.73 150.03 79.41 147.04 C 79.60 145.27 78.86 144.27 77.19 144.03 C 77.61 143.46 78.03 142.89 78.45 142.33 C 78.06 141.20 77.67 140.08 77.28 138.96 C 75.21 139.95 72.80 140.08 71.20 138.16 C 73.02 136.88 74.89 135.70 76.85 134.66 C 76.84 132.27 76.83 129.87 76.78 127.48 C 75.37 127.00 73.81 126.74 72.74 125.61 C 74.04 125.28 75.33 124.92 76.61 124.53 C 77.17 123.36 77.56 122.13 77.78 120.84 C 75.44 118.34 72.57 116.47 69.84 114.44 C 73.16 114.20 76.54 114.00 79.69 112.82 C 80.38 110.84 81.14 108.90 81.97 106.99 C 80.06 102.94 77.55 99.21 74.67 95.79 C 79.08 96.52 83.56 97.07 88.04 96.80 C 88.69 96.30 89.99 95.28 90.65 94.77 C 90.51 94.27 90.23 93.26 90.10 92.76 C 91.74 93.25 92.96 92.28 94.04 91.14 C 92.55 88.64 91.91 85.79 91.42 82.95 C 91.14 82.75 90.56 82.34 90.27 82.13 C 92.68 81.65 91.46 79.62 90.87 78.12 C 89.94 74.43 88.53 70.82 88.48 66.96 Z"/><path d=" M 158.77 84.23 C 158.89 85.42 159.01 86.61 159.12 87.80 C 159.80 88.43 160.49 89.07 161.17 89.70 C 164.00 88.73 166.75 87.52 169.37 86.06 C 168.19 88.61 167.10 91.21 166.09 93.84 C 167.38 95.38 168.66 96.93 169.98 98.45 C 172.62 98.15 175.25 97.80 177.87 97.38 C 175.97 99.39 174.06 101.44 172.86 103.96 C 174.74 103.66 176.57 103.18 178.42 102.75 C 177.33 104.15 176.24 105.55 175.17 106.97 C 177.65 112.07 179.37 117.44 179.91 123.11 C 184.04 125.34 188.34 127.35 192.99 128.22 C 188.75 130.03 184.59 132.15 180.99 135.07 C 179.76 135.98 179.68 137.65 179.13 138.96 C 181.25 140.57 183.42 142.11 185.59 143.65 C 183.03 143.96 180.48 144.28 177.95 144.73 C 177.33 146.33 176.72 147.94 176.09 149.54 C 177.95 151.88 179.92 154.14 181.98 156.30 C 180.01 155.97 178.04 155.65 176.08 155.34 C 176.14 155.87 176.26 156.92 176.32 157.44 C 175.16 157.01 173.98 156.59 172.82 156.18 C 170.87 159.09 168.56 161.72 166.43 164.49 C 166.39 165.01 166.29 166.06 166.24 166.58 C 165.79 166.54 164.88 166.45 164.42 166.40 C 164.61 171.68 165.08 177.00 166.68 182.06 C 162.52 178.63 157.85 175.59 152.51 174.43 C 152.47 176.36 152.48 178.28 152.49 180.21 C 152.78 180.45 153.36 180.92 153.65 181.16 C 153.17 181.20 152.22 181.29 151.74 181.33 C 152.44 185.26 152.96 189.23 153.15 193.22 C 154.27 193.87 155.41 194.48 156.54 195.10 C 155.15 195.56 153.75 196.01 152.36 196.50 C 153.19 189.76 151.48 182.86 147.94 177.10 C 144.67 177.68 144.30 180.74 143.99 183.46 C 145.32 183.84 146.59 184.36 147.80 185.03 C 146.31 185.28 144.82 185.51 143.33 185.72 C 142.08 183.77 140.69 181.94 139.21 180.17 C 138.67 182.07 138.19 183.98 137.71 185.90 C 136.88 184.19 136.07 182.49 135.25 180.78 C 133.20 180.92 131.16 181.08 129.12 181.20 C 129.13 181.77 129.14 182.90 129.15 183.46 C 128.93 182.76 128.50 181.37 128.28 180.67 C 125.77 181.32 125.11 183.86 124.16 185.92 C 123.76 184.38 123.39 182.83 122.81 181.36 C 120.47 180.51 117.98 180.15 115.55 179.67 C 116.21 180.77 116.87 181.87 117.54 182.98 C 117.18 183.59 116.81 184.21 116.45 184.83 C 116.25 184.19 115.86 182.91 115.66 182.26 C 114.95 182.31 113.55 182.41 112.85 182.46 C 113.62 182.25 115.15 181.84 115.92 181.63 C 115.55 181.06 114.80 179.92 114.43 179.35 C 111.80 181.47 109.25 183.69 106.83 186.06 C 107.38 183.09 107.65 180.07 107.53 177.06 C 104.00 175.35 100.57 173.44 97.23 171.38 L 97.81 170.15 C 102.82 163.61 107.16 156.58 112.20 150.06 C 122.81 136.28 132.55 121.85 142.81 107.81 C 148.01 99.87 153.39 92.05 158.77 84.23 Z"/><path d=" M 35.85 90.09 C 38.32 91.26 40.78 92.55 43.61 92.43 C 46.87 94.06 49.32 96.88 52.21 99.06 C 49.85 98.36 47.69 96.63 45.11 97.14 C 37.39 117.59 37.48 140.93 45.73 161.20 C 50.43 173.30 58.08 184.07 67.35 193.10 C 66.96 193.69 66.19 194.86 65.80 195.45 C 42.46 174.37 31.84 140.63 38.42 109.93 C 39.22 104.80 41.23 99.99 42.52 94.99 C 40.49 93.09 37.93 91.92 35.85 90.09 Z"/></g><g fill="#7f271e"><path d=" M 186.03 33.14 C 187.45 31.67 189.18 30.56 191.09 29.85 C 188.86 38.29 183.53 45.40 179.34 52.92 C 178.85 53.74 178.35 54.56 177.85 55.37 C 171.56 64.97 165.62 74.82 158.83 84.08 L 159.29 84.53 L 158.77 84.23 C 153.39 92.05 148.01 99.87 142.81 107.81 C 132.55 121.85 122.81 136.28 112.20 150.06 C 107.16 156.58 102.82 163.61 97.81 170.15 C 90.25 179.97 82.76 189.85 75.08 199.59 C 74.67 200.11 73.85 201.15 73.43 201.67 C 68.03 208.42 62.41 215.01 56.68 221.50 C 53.98 224.47 51.21 227.52 47.59 229.41 C 47.75 225.70 49.78 222.54 51.40 219.33 C 55.76 211.11 60.93 203.37 65.80 195.45 C 66.19 194.86 66.96 193.69 67.35 193.10 C 70.63 188.05 73.97 183.04 77.14 177.92 C 78.05 176.37 79.30 175.05 80.86 174.14 C 77.03 181.21 71.83 187.56 68.87 195.10 C 72.03 194.26 73.89 191.30 75.99 189.03 C 81.38 182.25 87.26 175.89 92.44 168.95 C 101.09 157.05 110.03 145.37 118.62 133.43 C 123.70 125.96 129.05 118.69 134.27 111.31 C 139.94 101.64 147.32 93.10 153.08 83.48 C 155.89 79.82 158.36 75.92 160.87 72.06 C 164.19 66.80 167.79 61.59 169.61 55.57 C 161.40 61.56 156.86 71.25 149.34 77.98 C 150.67 74.96 153.00 72.59 154.93 69.96 C 160.16 63.33 165.45 56.74 170.85 50.25 C 171.19 49.82 171.87 48.97 172.21 48.54 C 176.61 43.22 181.11 37.97 186.03 33.14 Z"/><path d=" M 51.37 66.44 C 59.59 64.70 68.08 72.46 66.50 80.86 C 66.01 87.52 59.63 92.71 53.04 92.20 C 45.88 92.12 39.83 85.09 40.84 77.99 C 40.96 72.23 45.87 67.41 51.37 66.44 Z"/></g></g></svg>