<svg xmlns="http://www.w3.org/2000/svg" width="512" height="512" shape-rendering="geometricPrecision"><g transform="translate(512, 0) scale(-1, 1)scale(2,2)" stroke-width=".05%"><g fill="#6c4915"><path d=" M 91.22 20.07 C 102.82 16.52 114.73 12.89 127.01 13.55 C 143.01 12.82 158.97 16.26 173.74 22.28 C 185.04 28.31 196.45 34.45 206.36 42.63 C 216.81 51.45 224.66 62.90 231.04 74.90 C 237.39 86.42 240.79 99.32 243.08 112.19 C 243.94 121.75 243.79 131.40 243.27 140.98 C 241.83 149.46 239.73 157.84 237.05 166.02 C 229.80 186.52 216.79 205.10 199.39 218.24 C 193.08 222.42 186.69 226.52 179.92 229.95 C 170.48 235.43 159.78 238.15 149.19 240.37 C 142.56 241.83 135.75 241.75 129.01 241.76 C 122.30 241.70 115.48 241.91 108.94 240.16 C 101.22 238.68 93.83 235.98 86.28 233.88 C 81.09 230.91 75.43 228.80 70.43 225.49 C 66.83 223.11 63.13 220.89 59.33 218.85 C 55.58 214.86 51.19 211.52 47.46 207.51 C 42.90 202.37 37.71 197.66 34.53 191.46 C 30.27 184.96 27.00 177.90 22.92 171.29 C 20.25 161.55 16.81 151.97 15.49 141.91 C 14.23 128.54 14.37 114.87 17.73 101.81 C 19.83 93.73 22.05 85.54 26.33 78.29 C 29.92 71.10 34.24 64.32 38.71 57.65 C 51.92 40.22 70.55 27.11 91.22 20.07 M 114.62 19.41 C 113.90 23.35 113.34 27.32 113.00 31.32 C 115.96 30.90 118.92 30.51 121.88 30.13 C 120.23 26.54 118.55 22.96 116.84 19.40 C 116.28 19.40 115.18 19.41 114.62 19.41 M 118.54 18.80 C 121.71 22.85 125.38 26.47 129.24 29.85 C 133.52 26.62 137.37 22.87 140.83 18.79 C 133.41 18.38 125.96 18.25 118.54 18.80 M 138.19 30.12 C 141.13 30.56 144.07 31.00 147.01 31.47 C 146.65 27.08 145.98 22.73 144.88 18.47 C 141.60 21.68 139.94 25.98 138.19 30.12 M 91.07 25.69 C 95.20 28.43 99.55 30.82 104.04 32.92 C 106.93 28.81 109.60 24.54 111.85 20.05 C 104.68 20.88 97.73 22.96 91.07 25.69 M 147.17 20.04 C 149.29 24.61 151.87 28.94 154.84 33.01 C 159.62 31.01 164.23 28.57 168.25 25.26 C 161.35 23.06 154.41 20.82 147.17 20.04 M 87.48 25.55 C 87.34 30.09 87.53 34.63 87.81 39.16 C 90.64 38.17 93.47 37.15 96.30 36.13 C 94.23 31.95 91.42 28.16 87.48 25.55 M 163.23 35.84 C 166.03 37.20 168.83 38.55 171.64 39.89 C 172.35 35.35 172.76 30.76 172.53 26.16 C 168.75 28.67 165.82 32.15 163.23 35.84 M 65.52 39.12 C 70.35 40.99 75.40 42.17 80.52 42.91 C 82.57 37.97 84.06 32.81 84.85 27.52 C 78.09 30.81 71.46 34.46 65.52 39.12 M 174.04 27.59 C 174.68 33.20 176.20 38.67 178.59 43.78 C 183.91 42.84 189.16 41.54 194.27 39.79 C 188.32 34.52 181.16 30.96 174.04 27.59 M 113.45 35.70 C 101.26 38.60 88.44 41.48 78.43 49.46 C 70.32 55.20 63.06 62.08 56.59 69.60 C 49.09 78.50 42.67 88.63 40.01 100.08 C 34.67 116.56 34.03 134.62 38.80 151.32 C 41.15 159.96 43.65 168.82 48.90 176.22 C 53.27 182.38 57.74 188.54 63.25 193.75 C 68.72 199.05 75.03 203.36 81.14 207.86 C 88.87 213.51 98.33 215.77 107.39 218.31 C 128.16 223.87 150.53 220.76 170.01 212.15 C 182.06 205.76 192.58 196.70 201.49 186.44 C 206.52 180.03 211.93 173.66 214.96 166.00 C 219.66 153.22 223.53 139.80 222.79 126.03 C 223.32 114.02 219.70 102.42 215.96 91.17 C 211.22 80.04 203.95 70.04 195.09 61.83 C 184.64 50.40 170.85 41.95 155.79 38.25 C 142.18 33.82 127.49 33.39 113.45 35.70 M 62.84 40.51 C 63.59 44.58 64.87 48.53 66.47 52.35 C 68.77 50.63 71.08 48.92 73.38 47.19 C 70.03 44.72 66.52 42.47 62.84 40.51 M 186.26 46.78 C 186.28 47.21 186.30 48.08 186.31 48.52 C 188.55 49.90 190.80 51.28 193.03 52.68 C 194.61 48.74 196.03 44.72 197.01 40.59 C 193.10 42.03 189.49 44.15 186.26 46.78 M 44.97 58.50 C 49.85 58.65 54.73 58.54 59.60 58.33 C 60.33 53.41 60.55 48.44 60.22 43.48 C 54.67 47.99 49.73 53.18 44.97 58.50 M 198.66 42.91 C 198.51 46.60 198.26 50.31 198.50 54.02 C 198.65 55.48 198.61 57.21 199.94 58.18 C 204.59 58.82 209.30 58.37 213.97 58.32 C 209.21 52.85 204.08 47.72 198.66 42.91 M 41.98 60.97 C 44.10 64.77 46.58 68.33 49.17 71.82 C 50.80 69.41 52.41 66.99 54.04 64.58 C 50.26 62.69 46.21 61.36 41.98 60.97 M 204.95 64.61 C 206.60 66.88 208.23 69.15 209.88 71.42 C 212.26 68.01 214.53 64.52 216.56 60.88 C 212.58 61.74 208.70 63.02 204.95 64.61 M 40.72 63.79 C 36.41 69.95 32.76 76.52 28.99 83.02 C 34.41 82.66 39.62 81.09 44.65 79.14 C 43.89 73.90 42.63 68.74 40.72 63.79 M 214.02 78.32 C 218.90 80.48 224.03 82.06 229.31 82.87 C 226.44 75.78 222.22 69.36 217.95 63.05 C 216.12 67.99 214.80 73.10 214.02 78.32 M 217.09 85.27 C 218.63 87.99 220.19 90.71 221.77 93.41 C 225.20 90.71 228.47 87.79 231.44 84.58 C 226.65 84.06 221.81 84.31 217.09 85.27 M 27.44 84.51 C 29.79 88.54 33.46 91.39 37.20 94.05 C 38.55 91.23 39.88 88.40 41.20 85.57 C 36.63 85.04 32.04 84.56 27.44 84.51 M 231.66 88.52 C 228.74 92.73 226.31 97.26 224.23 101.94 C 228.31 104.79 232.56 107.39 237.04 109.58 C 236.46 102.30 234.43 95.25 231.66 88.52 M 21.16 110.17 C 25.75 108.08 30.09 105.51 34.22 102.62 C 32.46 97.80 30.04 93.26 26.97 89.15 C 24.07 95.86 22.39 102.99 21.16 110.17 M 226.20 109.25 C 226.40 112.26 226.61 115.27 226.82 118.28 C 230.48 116.92 234.10 115.44 237.63 113.77 C 237.67 113.24 237.73 112.17 237.76 111.64 C 233.91 110.80 230.06 110.01 226.20 109.25 M 19.66 112.94 C 23.40 115.30 27.37 117.27 31.44 119.02 C 31.88 116.03 32.34 113.05 32.77 110.07 C 28.29 110.45 23.88 111.39 19.66 112.94 M 228.08 127.07 C 230.18 131.84 234.63 134.94 238.39 138.34 C 238.84 130.90 238.84 123.42 238.32 115.98 C 234.70 119.46 230.55 122.61 228.08 127.07 M 20.48 138.80 C 24.26 135.41 27.77 131.75 31.11 127.93 C 27.92 123.85 24.32 120.12 20.53 116.61 C 19.37 123.96 19.40 131.44 20.48 138.80 M 226.95 135.01 C 226.70 137.99 226.45 140.96 226.19 143.94 C 230.38 143.40 234.56 142.77 238.69 141.88 C 235.81 138.10 231.15 136.74 226.95 135.01 M 19.63 141.42 C 23.80 143.18 28.21 144.24 32.71 144.72 C 32.27 141.61 31.80 138.49 31.35 135.38 C 27.36 137.21 23.39 139.13 19.63 141.42 M 225.28 152.42 C 225.37 157.31 228.82 161.40 231.67 165.11 C 234.71 158.83 236.24 151.93 237.01 145.03 C 232.99 147.29 228.64 149.18 225.28 152.42 M 21.13 145.31 C 22.43 152.42 24.31 159.42 26.87 166.19 C 29.87 162.11 32.39 157.71 34.08 152.93 C 29.89 150.19 25.58 147.62 21.13 145.31 M 28.29 167.33 C 28.23 167.96 28.10 169.21 28.04 169.84 C 32.15 169.74 36.25 169.55 40.35 169.28 C 39.30 166.42 38.25 163.56 37.19 160.71 C 34.16 162.83 31.18 165.02 28.29 167.33 M 217.95 168.50 C 222.58 169.17 227.25 169.61 231.93 169.50 C 229.15 165.75 225.53 162.78 221.73 160.13 C 220.46 162.91 219.21 165.71 217.95 168.50 M 214.18 176.55 C 215.13 181.56 216.42 186.49 218.17 191.28 C 222.88 185.41 226.29 178.67 229.66 171.98 C 224.27 172.62 219.05 174.19 214.18 176.55 M 28.95 172.24 C 31.95 179.16 35.37 186.07 40.54 191.66 C 42.45 186.87 43.64 181.84 44.58 176.78 C 39.49 174.89 34.28 173.30 28.95 172.24 M 41.72 194.83 C 45.98 193.79 50.13 192.37 54.24 190.87 C 52.42 188.34 50.60 185.82 48.79 183.28 C 45.93 186.80 43.48 190.64 41.72 194.83 M 204.93 190.32 C 208.80 192.02 212.86 193.27 217.03 193.97 C 214.93 190.29 212.53 186.80 210.02 183.38 C 208.32 185.69 206.62 188.01 204.93 190.32 M 44.66 196.81 C 48.89 202.54 54.43 207.05 59.78 211.66 C 60.24 206.79 60.13 201.91 59.58 197.06 C 54.62 196.60 49.63 196.49 44.66 196.81 M 198.70 211.57 C 204.27 207.14 209.18 201.98 213.79 196.58 C 208.98 196.45 204.18 196.52 199.37 196.69 C 198.66 201.61 198.45 206.59 198.70 211.57 M 66.51 202.72 C 64.83 206.66 63.56 210.77 62.77 214.99 C 66.47 212.92 69.99 210.54 73.37 207.98 C 71.09 206.21 68.80 204.46 66.51 202.72 M 185.65 207.70 C 189.05 210.47 192.75 212.89 196.87 214.44 C 195.77 210.43 194.34 206.54 192.82 202.68 C 190.44 204.36 188.04 206.02 185.65 207.70 M 65.74 216.33 C 71.60 220.99 78.22 224.57 84.87 227.96 C 83.98 222.94 82.69 218.00 81.10 213.16 C 75.83 213.32 70.69 214.58 65.74 216.33 M 177.97 212.22 C 176.08 217.28 174.60 222.50 174.09 227.91 C 180.62 223.99 187.39 220.45 193.52 215.90 C 188.47 214.16 183.26 212.92 177.97 212.22 M 163.12 219.74 C 165.61 222.64 168.07 225.57 170.49 228.54 C 171.05 228.56 172.17 228.61 172.73 228.63 C 172.64 224.21 172.31 219.81 171.62 215.45 C 168.78 216.86 165.95 218.29 163.12 219.74 M 87.42 229.75 C 91.31 227.22 94.11 223.50 96.71 219.74 C 93.89 218.51 91.07 217.31 88.25 216.11 C 87.54 220.62 87.22 225.18 87.42 229.75 M 91.00 230.03 C 97.80 232.40 104.75 234.38 111.87 235.54 C 109.64 231.14 107.10 226.93 104.42 222.80 C 99.52 224.34 95.07 226.93 91.00 230.03 M 147.05 235.67 C 154.31 234.39 161.45 232.45 168.39 229.94 C 164.21 226.93 159.67 224.48 155.01 222.32 C 151.90 226.48 149.23 230.95 147.05 235.67 M 138.18 225.37 C 139.87 228.87 141.53 232.39 143.20 235.91 C 143.74 235.82 144.82 235.65 145.37 235.56 C 146.08 231.77 146.65 227.95 147.02 224.11 C 144.07 224.52 141.12 224.93 138.18 225.37 M 112.98 224.13 C 113.35 228.02 113.90 231.89 114.55 235.75 C 115.15 235.75 116.36 235.75 116.96 235.75 C 118.58 232.32 120.18 228.90 121.82 225.49 C 118.88 225.02 115.93 224.56 112.98 224.13 M 118.51 236.51 C 125.89 236.89 133.27 236.91 140.64 236.44 C 137.29 232.43 133.47 228.82 129.25 225.73 C 125.36 229.01 121.73 232.57 118.51 236.51 Z"/></g></g><g transform="scale(2,2)" stroke-width=".05%"><g fill="#484546"><path d=" M 89.95 81.24 C 94.35 84.17 98.47 87.50 102.83 90.49 C 102.65 100.85 103.12 111.20 102.97 121.56 C 108.51 127.15 113.58 133.19 119.17 138.74 C 125.19 138.52 131.22 138.55 137.25 138.68 C 141.55 134.49 145.34 129.82 149.65 125.64 C 151.37 123.76 153.91 121.96 153.38 119.06 C 153.02 109.53 154.00 100.01 153.58 90.48 C 157.85 87.44 162.05 84.30 166.25 81.17 C 166.85 85.71 166.73 90.30 166.76 94.87 C 168.86 97.28 172.71 99.16 172.11 102.90 C 172.15 118.47 172.04 134.03 172.13 149.59 C 167.50 152.12 162.93 154.76 158.48 157.61 C 155.52 155.65 152.53 153.75 149.63 151.72 C 144.90 155.89 140.18 160.08 135.55 164.36 C 137.93 166.71 140.36 169.02 142.79 171.32 C 141.63 174.48 139.59 177.47 139.65 180.94 C 139.61 185.63 139.65 190.32 139.73 195.01 C 132.16 196.58 124.43 195.97 116.83 195.06 C 116.67 189.71 117.10 184.35 116.65 179.02 C 115.93 176.40 114.55 174.01 113.53 171.51 C 115.96 169.12 118.48 166.81 120.84 164.36 C 116.25 160.09 111.44 156.06 106.93 151.71 C 103.90 153.70 100.86 155.68 97.81 157.64 C 93.38 154.73 88.81 152.03 84.14 149.53 C 84.19 133.15 84.19 116.77 84.12 100.39 C 86.01 98.48 87.90 96.57 89.79 94.66 C 89.73 90.19 89.73 85.71 89.95 81.24 Z"/></g><g fill="#9d8e6c"><path d=" M 121.34 34.49 C 140.91 33.22 160.92 38.07 177.61 48.42 C 195.55 59.77 209.84 77.15 216.52 97.39 C 221.53 112.32 223.28 128.55 220.20 144.08 C 216.55 166.77 203.89 187.75 185.73 201.79 C 170.87 213.81 152.02 220.29 133.07 221.60 C 110.98 222.62 88.30 216.01 70.87 202.24 C 56.02 190.89 44.59 174.99 38.98 157.12 C 32.52 137.61 32.81 116.07 39.71 96.71 C 47.36 74.24 64.33 55.27 85.40 44.48 C 96.56 38.78 108.90 35.67 121.34 34.49 M 117.99 38.45 C 118.48 42.06 118.93 45.68 119.27 49.32 C 116.01 49.78 112.75 50.31 109.54 51.08 C 110.12 53.40 110.73 55.71 111.34 58.03 C 116.35 56.88 121.48 56.44 126.60 56.13 C 126.59 52.56 126.44 49.00 126.16 45.45 C 129.78 45.38 133.41 45.51 137.02 45.85 C 137.35 43.38 137.72 40.92 138.04 38.45 C 131.38 37.76 124.66 37.76 117.99 38.45 M 95.15 44.23 C 96.58 47.55 97.98 50.88 99.43 54.19 C 96.28 55.57 93.16 57.00 90.10 58.58 C 91.33 60.59 92.56 62.60 93.78 64.62 C 98.36 62.21 103.17 60.31 108.09 58.76 C 107.09 55.30 106.09 51.85 105.06 48.40 C 108.55 47.46 112.11 46.78 115.67 46.12 C 115.31 43.71 114.96 41.30 114.60 38.89 C 107.98 40.14 101.43 41.76 95.15 44.23 M 141.37 38.91 C 140.96 42.54 140.52 46.18 139.92 49.79 C 136.61 49.28 133.27 49.00 129.92 48.83 C 129.92 51.26 129.92 53.70 129.92 56.14 C 135.04 56.49 140.15 56.98 145.17 58.09 C 146.13 54.63 146.97 51.14 147.54 47.60 C 151.10 48.39 154.60 49.43 157.98 50.81 C 158.95 48.66 159.89 46.49 160.84 44.33 C 154.62 41.67 148.00 40.18 141.37 38.91 M 74.58 55.72 C 76.89 58.47 79.09 61.32 81.39 64.09 C 78.58 66.11 75.92 68.32 73.40 70.70 C 75.11 72.35 76.82 74.02 78.52 75.68 C 82.27 72.07 86.55 69.10 90.79 66.11 C 88.87 63.10 87.02 60.05 85.16 57.00 C 88.33 55.22 91.57 53.59 94.83 51.97 C 93.85 49.82 92.92 47.65 91.99 45.47 C 85.93 48.42 79.84 51.45 74.58 55.72 M 160.03 55.69 C 156.84 54.39 153.62 53.20 150.41 51.96 C 149.73 54.26 149.07 56.58 148.42 58.89 C 153.34 60.47 158.12 62.46 162.71 64.85 C 164.50 61.70 166.29 58.53 167.98 55.32 C 171.06 57.18 174.11 59.07 177.04 61.15 C 178.46 59.29 179.93 57.46 181.42 55.65 C 176.07 51.46 170.01 48.35 163.92 45.43 C 162.50 48.81 161.25 52.24 160.03 55.69 M 57.64 71.94 C 60.53 74.09 63.39 76.28 66.28 78.44 C 64.28 81.13 62.31 83.85 60.41 86.61 C 62.38 87.89 64.38 89.13 66.37 90.38 C 69.43 86.09 72.44 81.72 76.23 78.03 C 73.49 75.57 70.78 73.07 68.36 70.28 C 70.94 67.82 73.62 65.48 76.29 63.13 C 74.78 61.32 73.31 59.49 71.88 57.61 C 66.55 61.76 61.69 66.53 57.64 71.94 M 177.35 66.15 C 174.72 64.19 172.07 62.25 169.37 60.38 C 168.08 62.39 166.84 64.44 165.64 66.52 C 169.94 69.33 174.09 72.40 177.79 75.98 C 180.34 73.40 182.83 70.76 185.22 68.03 C 187.81 70.61 190.31 73.30 192.64 76.12 C 194.51 74.66 196.39 73.20 198.28 71.76 C 194.18 66.41 189.33 61.67 184.03 57.52 C 181.89 60.46 179.72 63.39 177.35 66.15 M 114.94 61.03 C 98.01 64.40 82.23 74.17 72.39 88.45 C 64.33 99.93 59.74 113.88 59.70 127.93 C 59.74 147.01 68.07 165.99 82.28 178.76 C 91.97 187.20 103.98 193.45 116.83 195.06 C 124.43 195.97 132.16 196.58 139.73 195.01 C 150.99 193.47 161.54 188.32 170.50 181.45 C 184.51 170.48 193.54 153.69 195.80 136.12 C 197.72 120.84 194.00 105.02 185.91 91.97 C 171.77 68.24 141.92 55.36 114.94 61.03 M 180.11 78.37 C 183.77 82.02 186.77 86.24 189.59 90.54 C 192.78 88.82 195.88 86.93 198.92 84.97 C 200.68 88.11 202.31 91.31 203.87 94.55 C 206.04 93.66 208.21 92.76 210.36 91.82 C 207.66 85.69 204.27 79.88 200.33 74.46 C 197.48 76.71 194.58 78.90 191.58 80.95 C 189.64 78.27 187.50 75.74 185.21 73.35 C 183.51 75.03 181.81 76.70 180.11 78.37 M 45.45 92.04 C 48.84 93.42 52.22 94.85 55.46 96.55 C 54.24 99.57 53.12 102.63 51.97 105.68 C 54.27 106.35 56.56 107.01 58.86 107.65 C 60.49 102.69 62.44 97.85 64.84 93.22 C 61.69 91.38 58.41 89.76 55.05 88.34 C 57.03 85.11 59.05 81.91 61.24 78.83 C 59.36 77.44 57.50 76.04 55.66 74.60 C 51.45 79.91 48.37 85.96 45.45 92.04 M 191.31 93.58 C 193.69 98.12 195.61 102.89 197.11 107.79 C 200.61 106.82 204.12 105.89 207.60 104.84 C 208.44 108.31 209.21 111.81 209.93 115.32 C 212.32 114.97 214.70 114.62 217.09 114.26 C 215.75 107.67 214.16 101.13 211.66 94.87 C 208.38 96.38 205.04 97.78 201.64 99.00 C 200.25 95.94 198.84 92.89 197.35 89.87 C 195.34 91.12 193.32 92.35 191.31 93.58 M 44.15 95.23 C 41.77 101.53 40.11 108.06 38.87 114.67 C 42.54 115.12 46.20 115.70 49.81 116.50 C 49.24 119.72 48.96 122.98 48.81 126.24 C 51.24 126.27 53.68 126.29 56.12 126.31 C 56.47 121.14 56.97 115.98 58.07 110.91 C 54.57 109.97 51.06 109.10 47.53 108.30 C 48.46 104.81 49.50 101.34 50.82 97.98 C 48.61 97.04 46.38 96.13 44.15 95.23 M 197.93 111.15 C 199.12 116.12 199.56 121.22 199.83 126.31 C 203.41 126.30 206.98 126.23 210.56 126.16 C 210.66 129.69 210.52 133.23 210.18 136.75 C 212.67 137.13 215.16 137.50 217.66 137.83 C 218.18 131.12 218.28 124.37 217.51 117.68 C 213.91 118.10 210.32 118.61 206.74 119.15 C 206.16 115.80 205.61 112.45 204.81 109.14 C 202.52 109.81 200.22 110.47 197.93 111.15 M 38.63 118.04 C 37.56 124.75 37.81 131.59 38.50 138.33 C 42.00 137.86 45.49 137.30 49.00 136.86 C 49.63 140.28 50.39 143.66 51.34 147.00 C 53.58 146.30 55.82 145.61 58.06 144.91 C 56.91 139.94 56.46 134.85 56.14 129.78 C 52.49 129.81 48.84 129.75 45.22 129.30 C 45.39 125.91 45.58 122.53 45.87 119.15 C 43.45 118.79 41.04 118.42 38.63 118.04 M 199.87 129.75 C 199.51 134.82 199.09 139.92 197.93 144.88 C 201.40 145.87 204.93 146.67 208.48 147.35 C 207.64 150.85 206.61 154.31 205.40 157.71 C 207.55 158.69 209.72 159.62 211.92 160.51 C 214.31 154.27 215.91 147.77 217.15 141.21 C 213.52 140.67 209.88 140.23 206.22 139.98 C 206.75 136.59 207.04 133.17 207.17 129.75 C 204.74 129.74 202.30 129.74 199.87 129.75 M 38.89 141.68 C 40.24 148.30 41.87 154.86 44.32 161.17 C 47.64 159.67 51.04 158.32 54.52 157.22 C 55.83 160.28 57.23 163.29 58.72 166.27 C 60.75 165.02 62.79 163.79 64.83 162.56 C 62.33 158.01 60.41 153.17 58.90 148.20 C 55.41 149.24 51.92 150.24 48.41 151.21 C 47.56 147.71 46.80 144.19 46.07 140.67 C 43.67 141.00 41.28 141.32 38.89 141.68 M 197.18 148.13 C 195.61 153.02 193.74 157.82 191.31 162.35 C 194.46 164.22 197.72 165.90 200.85 167.80 C 198.99 170.85 197.09 173.87 195.02 176.79 C 196.96 178.21 198.89 179.62 200.81 181.07 C 204.55 175.52 207.92 169.73 210.69 163.64 C 207.49 162.26 204.13 161.28 201.02 159.71 C 201.15 156.38 203.14 153.28 204.11 150.09 C 201.80 149.42 199.49 148.79 197.18 148.13 M 45.68 164.35 C 48.48 170.46 51.77 176.35 55.80 181.75 C 58.60 179.50 61.35 177.20 64.29 175.13 C 66.44 177.76 68.64 180.36 70.87 182.93 C 72.55 181.18 74.25 179.46 75.95 177.75 C 72.15 174.22 69.72 169.53 66.16 165.83 C 63.03 167.39 60.15 169.38 57.08 171.03 C 55.32 167.90 53.70 164.69 52.13 161.46 C 49.98 162.42 47.83 163.38 45.68 164.35 M 180.30 177.47 C 182.69 179.92 185.35 182.18 187.29 185.04 C 185.54 188.05 182.70 190.16 180.13 192.42 C 181.70 194.29 183.21 196.21 184.70 198.15 C 189.75 193.76 194.61 189.13 198.65 183.77 C 195.84 181.45 192.78 179.47 189.63 177.63 C 191.80 174.82 193.88 171.93 195.74 168.89 C 193.74 167.72 191.76 166.52 189.78 165.32 C 186.84 169.54 183.92 173.80 180.30 177.47 M 57.76 184.34 C 61.96 189.69 66.82 194.50 72.20 198.65 C 74.38 195.74 76.52 192.81 78.52 189.78 C 81.31 191.90 84.16 193.94 87.16 195.76 C 88.31 193.76 89.48 191.76 90.66 189.77 C 86.37 186.80 82.07 183.80 78.37 180.11 C 75.82 182.72 73.27 185.33 70.68 187.90 C 68.12 185.42 65.76 182.76 63.51 180.01 C 61.60 181.46 59.68 182.90 57.76 184.34 M 165.74 189.44 C 167.58 192.54 169.35 195.69 171.13 198.83 C 168.08 200.56 164.97 202.18 161.78 203.63 C 162.68 205.84 163.61 208.03 164.51 210.24 C 170.62 207.41 176.58 204.17 181.90 200.01 C 179.64 197.25 177.35 194.51 175.22 191.66 C 177.85 189.49 180.42 187.25 182.98 184.98 C 181.29 183.31 179.63 181.60 178.01 179.86 C 174.23 183.43 170.08 186.58 165.74 189.44 M 148.60 197.07 C 149.56 200.55 150.57 204.03 151.30 207.57 C 147.85 208.42 144.38 209.12 140.91 209.85 C 141.32 212.22 141.73 214.60 142.13 216.98 C 148.51 215.62 154.98 214.32 160.95 211.62 C 160.53 208.08 158.19 204.97 157.34 201.48 C 160.37 200.14 163.38 198.73 166.33 197.21 C 165.13 195.19 163.96 193.15 162.81 191.10 C 158.25 193.48 153.49 195.46 148.60 197.07 M 88.34 200.92 C 85.24 198.98 82.12 197.07 79.11 194.99 C 77.68 196.90 76.25 198.82 74.82 200.73 C 80.33 204.60 86.24 207.84 92.33 210.69 C 93.74 207.30 95.12 203.90 96.42 200.48 C 99.55 201.78 102.75 202.92 105.96 204.01 C 106.66 201.75 107.33 199.48 108.05 197.23 C 103.07 195.66 98.22 193.73 93.61 191.30 C 91.73 194.44 89.96 197.64 88.34 200.92 M 111.27 197.96 C 110.23 201.40 109.35 204.89 108.63 208.41 C 105.09 207.66 101.61 206.63 98.22 205.33 C 97.32 207.53 96.40 209.72 95.51 211.93 C 101.77 214.33 108.29 215.93 114.88 217.14 C 115.45 213.72 115.91 210.28 116.22 206.82 C 119.64 206.75 123.05 206.93 126.47 207.13 C 126.52 204.78 126.65 202.42 126.50 200.08 C 121.44 199.27 116.26 199.21 111.27 197.96 M 129.91 199.88 C 129.91 203.44 129.96 207.00 130.06 210.56 C 126.47 210.63 122.89 210.49 119.31 210.20 C 118.99 212.65 118.68 215.09 118.36 217.54 C 125.16 218.29 132.05 218.33 138.83 217.34 C 138.19 213.82 137.57 210.30 136.89 206.79 C 140.33 206.17 143.78 205.56 147.17 204.73 C 146.59 202.47 146.08 200.19 145.18 198.03 C 140.11 198.81 135.03 199.59 129.91 199.88 Z"/></g></g></svg>